<svg xmlns="http://www.w3.org/2000/svg" width="7724.57" height="1235.86" viewBox="0 0 7724.57 1235.86"><defs><style>.cls-1{fill:#040404;}.cls-2{fill:#020202;}.cls-3{fill:#030303;}.cls-4{fill:#050505;}</style></defs><title>home-silo_1</title><g id="Layer_2" data-name="Layer 2"><g id="Layer_1-2" data-name="Layer 1"><path class="cls-1" d="M0,951.88c32.89-5.35,66.53.42,99.28-6.32,50.87-10.48,101.88-20.44,151.85-34.75,9.66-2.77,15.77-12.74,25.17-17.08,2-.91,1.62-3.59,1.3-5.65-4.66-30.43-6.59-61.63-16.24-90.79-4.64-14-7.69-27.42-7.26-41.67.67-22.45,13.82-34.27,36.41-33.72a229.79,229.79,0,0,1,46.64,6c-.52-5.35-4.76-6.4-7.42-8.77-17.88-15.9-36.37-31.1-48.16-52.7-5.36-9.82-11.44-10.77-21.34-5.29-3.89,2.15-7.66,4.61-11.75,6.26-7.52,3-13.52,2.94-17-6.65-2.72-7.49-8.7-13.38-15.47-17.74-5.4-3.48-3.58-8.45-3.66-12.93-.25-14.6-1.36-16.16-15.68-18.85-8.41-1.58-16.86-2.93-25.28-4.49-6.41-1.19-8.83-3.53-4.86-10.47,9.82-17.14,17.22-35.76,34-48.08,10.25-7.51,21-12.9,33.92-12.66,10.94.21,21.24-6.1,32.46-3.08.74.2,2.41-.43,2.54-1,2.56-10,8.5-8.84,15.63-5.12,9.22,4.81,18.63,11,16.32,22.23-2,9.77,2.64,18.71.15,28.24-1.23,4.73,3.45,7.55,8.11,6.24,15.27-4.3,30.22-2,45.65-.41,16.15,1.63,30.44-6.86,39.2-20.19,18.38-27.95,43.5-49,68.37-70.35a49.79,49.79,0,0,1,30.92-12.35c7.63-.29,13.49-5,18.41-10.3,16.28-17.45,36.68-30.95,49.57-51.64a5.53,5.53,0,0,1,2.11-2.21c14.3-6.18,23.88-17.48,32.81-29.62,1-1.42,3.52-1.95,5.44-2.54s3.72-2.83,5.52-.67.54,4.47-1,6.49C601.85,395.9,597.48,403,592,409s-6.82,13.57-11.46,21.29c6.56-1.43,8.72-5.95,12.66-7.75,2.55-1.17,5.44-2.32,7.52.27,1.92,2.4-.1,4.5-1.85,6.16a138.18,138.18,0,0,0-20.37,24.14c-4.14,6.26-11.37,8.69-18.89,8.8-6,.08-10.16,2.72-13.76,7.45-28.17,37-58.22,72.53-87.91,108.32-8.41,10.15-18.42,18.34-29.08,25.81-5,3.52-4.76,5.18-1.33,10.87,6.4,10.61,16.17,15.09,26.14,20.14a82.07,82.07,0,0,1,21.38,15.83c16.65,16.94,36.61,28.63,58.66,36.7,7.16,2.62,7.86,6.13,5.6,12.32-2.68,7.38-4.7,15-7.41,22.38a12.79,12.79,0,0,0,0,8.86,334.37,334.37,0,0,1,13.39,72.53c2.41,31-19.6,63.54-53.59,76.23-41.34,15.43-82.13,32.19-123.29,48-6.76,2.6-8.55,3.52-2.07,9.48,15.18,14,14.73,18-.73,31.67-4.36,3.85-9,7.37-13.45,11.12-2.12,1.79-3.87,3.77-7.07,1.6-8.86-6-11.62.52-14.37,7.18-6.28,15.18-12.71,30.33-24.28,42.41-3.24,3.38-6.63,9.31-12.69,4.68-5.2-4-8.84-10.08-5.31-16.2,9.34-16.19,8-33.45,7.41-50.93-.27-8.58-3.58-9.53-10-6-34.54,18.82-73.19,21.67-110.8,28.43-5.54,1-11.8.27-17.3-1.22-15.76-4.27-26.45,2.75-35.11,14.61a107.38,107.38,0,0,1-21.27,22c-5.55,4.28-10,4.85-15.06-.54-5.66-6-11.42-11.77-15-19.37s-8-11.58-17.36-14.31c-17.45-5.11-34.46-13.25-48.25-26.22C4,964.27,3.08,961.47,0,962.16Z"/><path class="cls-2" d="M5600.17,947.73l.66-3c1.93-1.38,2.83-3.13,1.94-5.51l.9-3.88c1.8-3.28,4-6.45,3.12-10.51l1-3.88c3.9-4.09,4-9.57,5.37-14.6l4.78-14.19c1.65-.93,2.58-2.2,2-4.19,2.94-7.44,6.88-14.5,8.19-22.53a37.4,37.4,0,0,0,5.71-20.71l.57-3.93c3.23-8.73,3.2-17.83,3.06-26.94l1-6,9.62-29c7.53-15.44,18-28.92,28-42.79a4.23,4.23,0,0,0,3.58-4.36c8.55-9.19,17.73-17.58,29-23.39,2.46.47,3.86-.82,4.79-2.9a7.66,7.66,0,0,0,5.55-2.9c6.92-2.14,4.8-5.78,1.6-9.6-1.62-9.39-7.61-16.64-12-24.66-.19-2.29-1.17-4-3.5-4.66-6.27-8.82-13-17.24-21.57-24-.2-2.12-.49-4.18-2.88-5a39.22,39.22,0,0,0-12.4-16.06c-7.25-5.83-14.43-7.69-20.63,1.59-6.36.3-12.88.2-16.83,6.63l-5.64,3.3c-1.47-.87-7.21,1.56-2.93-3.76,1.55-1.92,2.1-3.54-1-4.28-3.49-.83-23,8.29-24.66,11.79-.78,1.68-1.38,3-3.37,3-2.62.07-3.33-1.94-4-3.85-2.29-6.66,3.67-8.53,7-11.91.94-.67,2.66-1.32,2.68-2,.07-2.19-1.69-2.21-3.38-1.89a7.42,7.42,0,0,1-1.77-.08c-.69-2.55,2.77-5.17.36-7.39-1.77-1.63-3.65-.37-4.61,1.76-9.36.41-17.86,10.39-27.95,1.54a15.92,15.92,0,0,1,9.07-11.59c1.84-.92,4.8-2.33,3.34-5.38-1.14-2.37-3.51-1.39-5.43-.86-3.19.89-6.19.7-8.4-2-1.31-1.57-2.33-4.64.65-4.56,10,.24,14.68-9.54,23.33-11.59,2.58-.61,4.85-1.95,3.8-6.3-4.42,3.48-7.88,6.74-11.84,9.22-6,3.77-18,1.88-17.84-2.8.23-8.91-2.77-5.07-6.57-2.79-5.92,3.55-10.9,4-11.5-5,5.28-3.18,8.35-6.75,2.09-12,.13-2.43-1.28-3.82-3.26-4.82-1.22-4.71,3.37-7.23,4.22-11.16l6.31-7.45a2.8,2.8,0,0,0,1.78-.83c4.43-2.71,1.67-7.52,3.22-11.06l.08-.08c6.5-2.29,10.54-5.62,5.42-12.82l-.65-5.36c.53-15.08,1.2-30.17,0-45.25l.61-9.43c3.46-7.69,2.85-15.85,2.68-23.94-.05-2.43-.77-5-3.83-5.16-2.28-.11-3.76,1.29-3.89,3.75l0,0c-2.6,1.41-5.39,2.56-7.75,4.29-3.16,2.32-3.54,4.74.85,6.29l.15.11,1.56,8.15-4,7c-3.38,2.16-4.67,5.4-4.78,9.25l-1.65,3c-1.77,1.25-3,2.77-2.77,5.11l-4.74,9.73c-2.33.82-3.4,2.39-2.94,4.88L5518.77,499c-2.68,1.73-4.59,3.93-4.43,7.36l-3.15,5.4c-2.35.82-3.45,2.37-2.91,4.91l-3.51,7.24c-2,1.09-3.22,2.63-2.74,5.07l-1.13,3.33c-4.16,2.44-4.48,6.82-5.5,10.85l-1.06,3.25c-2.06,1-3.35,2.49-3.12,4.93l-1.91,2.52c-3.16.66-6.54.87-8.55,4l-3.6,1a121,121,0,0,0-34.22,9.77l-3.31.69c-4-1.36-7.29.21-10.27,2.78l-3.65.74c-9.65.56-19.08,2.08-28,6.1l-3.32.58c-5.27-1.43-10-.1-14.38,2.87l-3.64.76a57.06,57.06,0,0,0-25.89,6.17c-3,.2-5.8.61-6.53,4.25a30.35,30.35,0,0,0-3.51,19.35l-.39,3.34c-3.5,4.07-3.31,8.73-2.17,13.54l-.68,11.87c-3.53,9.8-2.47,20.19-2.43,30.15,0,6.45-.83,15.58,8.37,19l0,0c1,4.46,4,6.95,8.27,8,9.7,12.5,25.49,18.19,34.81,31.1.15,2.33,1.13,4,3.53,4.66l13,22c-.51,2.46,1,3.84,2.75,5.07l1.42,3.12c-.38,2.29.93,3.78,2.46,5.16l2.56,4.79a22.62,22.62,0,0,0,6.57,15.35l7.9,21.63c4.12,16.61,9.06,33,16.24,48.54l.7,3.35c-1.33,3.48.07,6.05,2.73,8.2l.84,3.61c1.93,10.8,3.89,21.6,9.4,31.33l.81,3.62c.41,7.72,1.89,15.14,6.08,21.8l.59,3.35c-1.13,4,.07,7.33,2.81,10.26l.72,3.64c.5,8.35,1.62,16.54,6.11,23.86l.62,3.34c-1.37,4.68.12,8.67,3,12.3l.75,3.61c.06,7.79,1.38,15.25,5.73,21.92l.71,3.26c2.26,17,7.07,33.33,13.19,49.31l.83,3.61c0,7.19,1.5,13.93,5.9,19.82l.73,3.3c2,9.46,3.69,19,6.24,28.34,2.11,7.71,1.75,16.21,6.89,23l.69,3.64c-1.37,5.5.73,10.24,3.3,14.86l.68,3.66c-1.36,3-.41,5.44,2.09,7.4l.7,3.33c-1.33,4.64.15,8.62,2.89,12.31l.67,3.63c-1.41,8.24,4.91,15.3,3.6,23.53l-.28.24c-2.34-.09-4.25.49-4.88,3.09l-3.18,1.71c-11,3.32-22.85,4.26-32,12.32-36.61.42-73.24,2.12-109.81-1.16-5.42-.49-11.26-.85-12.45-8.17a4.22,4.22,0,0,0-4.28-3.74c-5.81,0-11.61.51-17.42.45-7.42-.07-9.89,4.4-11.29,10.75-.8,3.63-4.48,2.4-7,2.4q-133.57.08-267.14.08c-8.41,0-12.26-3.42-10.25-12,4.41-19,10-37.76,13-56.95,4.77-30,13.88-59.13,15.88-89.77,1.05-16.08,7.53-31.77,11.06-47.74q13.61-61.65,22.65-124.15c6.82-47.32,11.23-95.18,26.64-140.91,9.82-29.13,25.41-52.47,56.61-62.87,16.4-5.46,17.59-9.37,13.15-26.1-6.58-24.75-13.91-49.3-20.65-74-1.65-6-4.8-8.35-11-7.86-18.77,1.49-37.63,2-56.33,4.07a325.14,325.14,0,0,1-66.56.72c-5.58-.53-10.23-1.79-12.68-7-11.34-24.11-27.09-46-36.92-70.76-4.75-12-7-24.88-14.92-35.6-2.37-3.19-2.93-8.37-8-8.23-4.67.13-2.94,5.45-4.94,8-11.13,14.4-16.26,31-19.29,48.85-1.83,10.79,1.95,17.75,8.59,24.55,12.34,12.64,14.65,34.34,3.25,47.44-4.07,4.68-4.75,13.1-13,14.07-.62.07-1.15,2.25-1.44,3.51-.9,3.84,5.58,7.9.78,11.07a24.91,24.91,0,0,1-16.65,4c-.14-.81-.28-1.61-.43-2.41l-1.35.76,2,1.4c-12.67,3.09-21.55-4.69-30.69-11.1-3.81-2.67,0-6.42.94-9.28,2-6.53-.1-7.84-6.24-7.1-18.56,2.23-34.32,16.57-39.54,37.93a302.88,302.88,0,0,0-8.51,55.74c-.23,4.36.34,6.67,5.11,8.21,41.6,13.41,65.79,43.41,77.31,84.17,9.08,32.13,14.17,65,18.38,98.27,3.86,30.47,8.84,60.92,12.73,91.44,6.53,51.23,12.28,102.56,18,153.88,2.41,21.46,5.93,42.68,12.24,63.31,2.21,7.23.23,9.79-6.8,10.9-11.23,1.77-22.53,1.38-33.8,1.92-5.2.25-10.65-.48-9.91,7.77.42,4.76-3.84,4.57-7.23,5.26-15.43,3.13-30.81,1.06-45.92-1.42-17.43-2.86-34.85,0-52.2-1.74-1.72-.17-4.29,0-3.93,2,2.15,12-7,7.08-11.64,7.44-8.51.65-17.1.06-25.66.24-6.1.13-10-1.59-6.51-8.25,2.44-4.69.75-6.72-3.17-8.89-2.64-1.46-6.17-3.29-7-5.73-4.05-12.14-12-9.88-21.3-7.5-13.22,3.4-25.48,10-39.43,11.08-5.92.48-5.18,6.65-5.16,10.83,0,6.61-2.43,9-9.17,8.54a234.9,234.9,0,0,0-24.63-.07c-7.76.27-10.69-2.88-6.67-9.75,3.63-6.21.59-7.31-4.46-7.24-5.75.08-12.37-3.78-16.8,3.42-1,1.59-2.88,1.42-4.66,1-35-7.93-71.23-9.82-105.35-21.92-4.89-1.73-8.56-3.57-6.33-10.27,10.77-32.39,19.92-65.39,32.07-97.25,13.53-35.46,24.11-71.8,35.88-107.79,12.25-37.45,17.11-76.7,27.82-114.52,8.55-30.21,14.25-61.17,24.27-91,7.35-21.89,20.6-39.1,39.1-52.54,2.6.38,4.38-.43,4.78-3.27,3-1.87,5.52-4.72,9.28-5.32,6.33-.71,12.8-1,17.64-6.07l3.79-.72c4.75,2.49,7.16-1.62,6.72-4.26-1.28-7.84,1.28-16.2-3.08-23.58l-.82-10c1.8-4.6,2.75-9-2.16-12.49-.94-4.2-4.43-7.52-4.25-12.11,2-2.66.85-3.92-2-4.36l-4.89-2.44c-2.62-1.84-3.8-.62-4.32,2l-13.78,11.25c-3.69-.08-5.79,1.86-6.75,5.27l-7.3,5.32a13.69,13.69,0,0,0-11.17,7.08l-7,3.71c-9.88,1.94-19.38,4.94-28.07,10.18l-3.78.73c-3.31-2.36-5.93.1-5.85,2.45.21,6.19-3.77,12.23-.57,18.44l-.63,3.78c-5,8.67-6.76,18.07-6.34,28l-2.08,2.11c-3.25-1-4.9.09-4.67,3.61a1.87,1.87,0,0,1-.74,1.42c-5.21,3-7.24,7.57-6.95,13.39a1.44,1.44,0,0,1-.8,1.25c-7.09.5-11.95-6-18.86-6-1.84-.82-2.91-2.08-2.42-4.24,2.29-1.06,3-2.71,1.85-5l-.05-2.46c2.56-4.54,7.93-8.42.11-13.85-4.15-2.88-1-5.6,3.29-5.82,2.16,3.94,4.52,3,6.63.07,1.69-2.36,3.06-5,4.58-7.45,2.66-1.58,2.48-3.28.22-5.07-.62-2-1.27-3.92-3.5-4.69-4-9.09-10.59-16-18.76-21.47,2.6-9.7,7.41.38,11.6-1.51.31-2.54-4.67-7.59,2.6-8.26.86-.08,2.38-3,2.08-4.19-1.91-7.59-1-16.53-9.3-21.33-7.84-6.09-13.61-14-19.43-21.91.42-2.84-.83-4.34-3.65-4.59l-2.59-3.5c.52-2.82-.43-4.55-3.49-4.74l-8.23-7.39c-4.92-4.51-11.23-5.27-17.37-6.5a1.05,1.05,0,0,1-1.3-.75c-.24-2.95-1.89-4-4.69-3.48l-5.47-3.21c-9.18-5.18-18.06-11-28.73-12.86a1.09,1.09,0,0,1,1.22-.89c4.12-.86,5.44-2.66,2-6.05l.39-2c2.71.18,4.3-1,4.4-3.8a.94.94,0,0,1,1.24-.69c5.15-.48,10.25-1.18,15.05-3.25l4,.62c2.31,4.73,6,3.23,9.64,2.18l2.83,1.23c.12,2.8,1.62,4,4.35,3.72l20.32,16.8c1.08,4.68,4.69,5.47,8.69,5.66l9.75,6.87q.4,4,4.41,3.54l16.18,12.76c.33,2.93,2,4,4.81,3.41l5.41,3c1.16,4.36,5.16,4.85,8.5,5.94,6.63,2.16,13.38,4,20.08,5.94a1,1,0,0,1,.75,1.3c-.78,3,.35,5.33,3.22,6.29,2.69.9,4.46-.31,4.68-3.31a.92.92,0,0,1,1.15-.79c2.87.82,4.62-.13,5-3.19l11.33-9.18c5,.29,7.35-1.68,5.89-6.9l1.85-2.62c3.18-1.23,7-1.68,7.67-6.07,9-10.87,18.29-21.47,30.22-29.33,6.66-2.81,10.9-6.61,9.09-15-.83-3.89-2.55-10.39,2.37-12.06,10.8-3.67,7.25-10,3.68-15.8-2-3.26.29-6-.84-8.75,8.84-.91,15.75-7.44,12.28-12.55-3.2-4.71-1.64-9.08-2.75-13.46l1.2-4.32c2.51,0,4.2-1,4.29-3.78l8.83-8.31c8.52-3.28,4.52-11.65,7.07-17.36a1,1,0,0,1,.66-1.26c3.21-.47,4.2-2.25,3.12-5.26l6.73-9.9c3.19-.57,5.68-2,6.46-5.41l3.81-2.84a67.6,67.6,0,0,0,18.55-8.27l4.43-.1c10.06,3.28,20.79,5.19,28.22,13.82l6.94,9.56a3.51,3.51,0,0,0,2.21,4.13l.45,10.56c-2.29,1.74-1.94,3.4.13,5l1.35,2.88c3.3,11-1.47,20.9-4,31.11l-4.41,4.6c-3.52.84-7.34,1.14-9,5.23l-.15,2.25c1.27,5.78-.78,12.41,4.38,17.19l2.56,5.46c3.35,5.82,8.78-2.23,12.39,1.85l.09.09c10,13.22,23.07,3,34.6,4.24,5.87.64,9.61-4.1,10.21-10.35l.05-.06c2.4-.77,4.81-1.52,5.95-4.12l2.09-1.06c10.41-1,20.78-2.14,29.52-8.76l2.62-3.21c4.49-7.55,8.52-15.3,10.13-24.07l.81-3.89c4.72-8.49-1.68-18.29,3.13-26.77l-.26-2.17c-.43-3.32-3.21-3.1-5.48-3.66l.61-3c5.61-1.21,12.29-1.16,11.62-9.81l1.41-13.52c2.36-.79,3.21-2.55,3.13-4.9,3.41-4,7.2-7.21,13-6.41,3.38,1.54,6.76,1.95,10.14,0l6.29.05c1.84,1.72,3.37,3.92,6.28,3.91a1.36,1.36,0,0,0,1.39.87c.69,2.4,2.47,3.22,4.76,3.31l4.66,4.38c2.47,6,5.75,11.43,11.16,15.31,1.78,4.44,7.51,3.5,9.81,7.22.79,3.61.53,7.57,3.46,10.48l1,3.89a48.86,48.86,0,0,0,8.29,23.62l1.89,5.16c-.7,2.36.3,3.88,2.42,4.83a1.36,1.36,0,0,0,.68,1.5c-.12,2.5,1.17,3.89,3.51,4.47l0,0c.1,2.39,1.68,3.78,3.44,5,4.89,9.17,9.56,18.5,17.57,25.52.8,3.85,3.83,4.72,7,4.49,14.25-1,28.75-.68,42.5-5.07,8.69-2.77,17.77-6.13,17.89-17.91l4.68-3.47c3.13-6.29-1.4-16.76-8-18.57l-2.58-1.93c2.13-4.4,5.27-6.26,9.67-3.2,2.76,1.92,6,2.54,6.14-1.12.28-5.41,5.61-5.39,8.09-9.53-7.56-1.69-11.19-13.5-21.34-6.41l-3.18-4.89q.11-2.14.21-4.28l10.58-6.61,4-.35c4.19.75,6.47-1.89,7.39-5.17,1-3.62-3.06-4.35-5-5.31-7.16-3.49-11.3-10.35-16.26-15.73-2.38-2.59-12.12-7.75-4.14-15,6.14,2,9.89-2.24,14-5.41,1.19-.58,2.35-1.24,3.58-1.74,11.45-4.6,21.61-10.13,35-.92,7.3,5,19.82,2.53,30,3.27.53,0,1.16-1.46,1.75-2.25l7.82-6.69a5.17,5.17,0,0,0,4.78-3.4,1.2,1.2,0,0,0,1.34-.9,15.43,15.43,0,0,0,9.25-5l3.1-1.1c8.37-2.39,16.86-4.39,24.68-8.39l10.54-.11c10.42,2.37,19,7.83,26.44,15.4l2.38,3.8c-.44,2.57,1,4.07,3,5.31l3.89,6.85c-.51,2.53,0,4.39,3,4.76l2.53,1.52c2.3,3.31.73,7,1.07,10.51l.25,2.15,3.16,12-.22,6.33-2.19,12.42-.1.09L5300,486c-3.3.12-6.18,1.11-8.18,3.94-5,6.86-2.4,23,5.25,33.06l.11.11c.94,2.17,2.69,2.9,4.92,2.79l2.83,1.43c3.84,4.47,9,4.14,14.05,3.6,7.45-.8,14.83-.69,22.1,1.39l2.69,1.65,42.3.12,8.06-.47c12.49-1.21,25.13-1.38,37.16-5.6l6-.86c3.11,1,4.79-.93,6.41-3l6.3-.21c7.82,3,11.49-1.18,13.71-7.89,4.56-4.65,9.24-9.22,11.22-15.71a44.33,44.33,0,0,0,9.19-15.14,1.8,1.8,0,0,0,.9-1.57c6.32-6.63,9.13-15.34,13.56-23.08l1.91-2.64c5.43-8.67,7.31-18.62,10.17-28.22l.62-3.92,6.25-8.26a1,1,0,0,0,.7-1.24c4-3.52,3.72-8.7,5-13.26l1.57-2.78c2.28-2.82,4.59-5.63,4-9.64l13.4-16.5c2.45-.18,3.84-1.43,4-3.95l.12-.13,20.87-.1,2.37,2.32c.24,2.81,2.3,4.42,4.06,6.24l.5,8.05a10.81,10.81,0,0,0,2,8.28,6.53,6.53,0,0,0,1.51,6.23c2.42,5.3,6.68,9.42,4.87,16.71-4.27,17.23-.5,34.25,4,51l.56,4c-1.15,3.77.55,7.27.93,10.91,1.23,11.77,10.52,19.73,14.12,30.36,1.34,2.94-3.49,6.21.47,9,1,2.51,2.12,5,3.08,7.53,1.21,3.19,2.93,4.56,6,2,2.33-2,5.18-3.83,2.52-7.47-1.28-1.75-4.63-1.87-4-5.12,1.09-1.71,3.64-2.85,2.19-5.56l4.07-.25c4,3.79,8.55,5.93,13.59,2.67,11.51-7.43,22.79-15.23,34.16-22.87a1.22,1.22,0,0,0,1.36-.87c6.13-3.26,1.58-6.47,0-9.69l-.83-5.95-.1-21.08,1-5.93c1.4-1,2.35-2.29,2-4.18,5-8.07,12-14.34,18.61-21,17.61-9.45,35.5-11,53.75-1.85l4.75,6.27c-.56,2.46.5,4.13,2.59,5.29.15,2.17.84,4,2.87,5.15,2.31,5,7,8.69,7.78,14.5l.09,2.07c-.91,2.95.88,4.54,3,6-.18,4.08,2.65,6.87,4.32,10.16l2.48,27.25-5.17,6.79a9.33,9.33,0,0,0-7.66,4.11c-4.89,2.56-5.05,6.55-3.37,11.1-1,4,1,7.27,2.91,10.52l.62,3.93c-.8,2.93-.28,5.36,2.62,6.89,1.37,4.46,3.79,3.95,6.63,1.4l4.22-.33,4.1,2.37,5.48,4.7c1.11,3,2.64,3.08,4.52.63,3.2-.17,5.21,2.17,7.65,3.6,2.57,3.24,5.09,3.59,7.56-.12a1.13,1.13,0,0,0,1.29-.86c5.5-.05,6.16-3.6,5.74-7.93l7.14-5.37c6.44-4-2.71-9,.88-13.17l2.67-2.39,6.53-.1c9.68,5.28,13.43-1.91,17.54-8.34,2-3,4.37-5.79,3.3-9.79l.94-3.92c4.23-6.28,4.09-13.69,5.31-20.74l1.23-5.91c4.08-4.88,5-11,2-15.9-3.45-5.71-2.8-11.37-3.09-17.22l1.06-10c1.62-.95,2.5-2.24,1.92-4.2,1.93-3,1.57-7.93,6.8-8.21l1.88,12.9c3.62-3.79,5.8-7.38,6.84-11.79.91-3.84,2.84-6.94,7.73-5.63,1.9,3.47,6.2,5.89,4.71,10.83-3.55,4-4.28,8.93-5.19,14.36,4.85-1.77,2.91-9,8-8.54,3.6.33.53,4.65,2,6.77l-.87,3.91c-6.29,8.23-.51,18.2-3.89,26.85a1.64,1.64,0,0,0-1,1.51c-5.32,4.67-6,10.58-4.51,17l-.9,14.18c-2.62,6.73-2.13,13.72-1.69,20.7-2.13,4.62,3.4,6.25,3.84,9.87-3.35,3.68-6,7.47-2.12,12.39l.74,3.93-.38,4.63c-4.54,9.69-8.53,19.73-17.25,26.72a10.85,10.85,0,0,0-6.87,5.55l-3.21,1.94c-4.08-.83-7,.78-9,4.29a1.3,1.3,0,0,0-1.37,1c-2.22.09-4.12.67-4.87,3.08l-3.64,2.21c-2-.23-4,1-3.32,2.57,2.41,5.53,1.15,12,4.66,17.16l.35,3c-.47,6.39,0,12.64,3,18.48l.92,6c-1.09,5.3.28,10.11,3,14.64l.61,3.93c-1.16,5,1.51,8.83,4.79,11.62,4.39,3.74,5.43,8.29,5.51,13.49l-.24,5.75c-.56,2.7.93,4,3.25,4.65l29.77,36.41c-.11,2.3.46,4.18,2.94,4.94l3.07,5.37a37.91,37.91,0,0,0,7.15,15.24l1.83,5.19c2.07,15.44,8.65,29.13,16.38,42.38l1,3.05c3,8.88,6,17.72,11.64,25.41l3.19,7.35a6.8,6.8,0,0,0,2.11,5.57l2.54,4.62a8.63,8.63,0,0,0,3.31,8.43l1.1,3.87c2.34,10.57,4.84,21.1,9.26,31.05l.64,3.93a132.06,132.06,0,0,0,10.09,36.41l3.76,8.89c3.64,10.48,6.63,21.22,12.28,30.9l1.17,3.9c-.84,3.38.32,6.12,2.71,8.47l.88,3.89a65.15,65.15,0,0,0,5.78,22.72l.73,4c-.54,4.57,1,8.63,3.12,12.54l.77,3.92c1,7.81,2,15.59,5.59,22.75l.69,4c-.9,6.57-.28,12.88,3.24,18.69l.82,3.91c-.42,5.82,1.17,11.28,3,16.69l.46,4c-.94,5-1.19,10,1.92,14.47l.94,6a93.51,93.51,0,0,0,3,31l.76,8a27.67,27.67,0,0,0,0,12.9,36.94,36.94,0,0,0-.19,13.83c-2.16,7.29,1.32,14.11,1.73,21.19l-.47.33a46.9,46.9,0,0,1-17.07.64l-4.62-2.45c-9.44-6.8-20-4-30.31-3.61a348.55,348.55,0,0,0-48.72.11,34.11,34.11,0,0,0-15-.07l-12.13-.89c-15.42-5.13-31.57-4.15-47.42-5.74l-3.9-.72c-1.88-1.6-4.19-3.22-6.23-1.12s-.92,4.31,1.76,5.5l.72,11.81c-2.06,1.63-3.81,3.43-3.6,6.34-3.54,6.2-8.5,8.38-15.93,8.06-16.31-.7-32.68-.22-48.6-.22-2.21-4.32,2.45-6,2.07-8.8-51.12,15-103.5,7-155.36,8.37-7.38-6.45-17.18-7.24-25.71-11l-26.87-17-1.07-10.71,1.23-5.88c1.71-2.57,3.61-5.09,2.76-8.49l.92-3.9c3.27-5.07,4.75-10.73,5.39-16.65l1.07-3.85c1.8-2.54,3.85-5,2.86-8.47l.91-3.91a15.12,15.12,0,0,0,2.89-12.51l1.16-6c2.25-1.69,2.57-3.84,1.52-6.32l.92-5.93c1.44-3.39,2.45-6.83,1.13-10.51l.42-10.15c2.55-3.19,2.4-6.75,1.38-10.41l.89-8c3.19-8.73,3.48-17.78,3-26.91l.83-6a11,11,0,0,0,1.75-10.38l1-8c2.09-5.37,3.61-10.84,2.91-16.7l1.05-5.94c2.88-3.75,3.42-8,2.89-12.56l.95-3.93c1.81-1,2.27-2.44,1.31-4.29l1.2-5.9c1.88-3.27,3.56-6.58,2.62-10.55l1.25-5.93A11,11,0,0,0,5600.17,947.73ZM4900.14,549c-.14,10.64,2.17,13.62,10.48,13.64,3.51,0,6.28-1.2,6-5.08-.27-4.35-1.44-8.69-5.44-11.24-1.37-.87-2.26.83-2.86,2C4905,555.26,4905,555.26,4900.14,549Zm682.42,56.9c-.69-1.8-2.09-2.92-3.88-2.31a3.94,3.94,0,0,0-2.29,2.84c0,2.38,2.18,2.14,3.82,2.06A2.22,2.22,0,0,0,5582.56,605.86Z"/><path class="cls-2" d="M852.89,671.76l-6.22,0c1.15-4.52,2-8.88,7.45-10.89,2.64-1,4-4.6,3.65-7.79-.21-2.09-2.46-4.67-3.89-3.95-5.73,2.87-13.79-3-18,5-1.54,2.93-3.94,1.71-6.19,1-7.66-2.33-15.35-1.41-23-.2l-4.48-.32c-11.19-.78-21.73,1.87-32,6.07l-14.06.8a86,86,0,0,0-32.69-.06l-7.86-.71c-13.79-4.35-28-5.94-42.36-6l-5.32-.55c-4.9-3.08-8.19-1.31-10.5,3.46l-7.92,6.63c-2.63-.3-4.09.88-4.47,3.47a2.08,2.08,0,0,1-1.45.83c-2.66-.41-4.19.76-4.68,3.37l-6.41,6.4c-2.39.17-3.72,1.41-3.88,3.84-9.49,6.2-11.25,18.62-20.29,25.17l-8.92.62a4.41,4.41,0,0,1-.1-4.66c4.45-4.77,6.31-12.54,3.47-16.12-3.5-4.41-5.05,5.42-9.59,5.41a11.58,11.58,0,0,0-2,.33l1.67-5.75c4.39-2.5,4.38-6.9,4.8-11.12l2.13-3.88c2.62.12,4.27-.93,4.51-3.71l6.69-6c4.53-2.66,8.74-5.7,12-9.91l5.46-3c2.58.41,4.31-.47,4.79-3.2a1.72,1.72,0,0,1,1.28-1c3.87.47,5.77-1.8,7-5a2.29,2.29,0,0,1,1.43-1c2.45.4,4.14-.43,4.78-3l2.76-2c13.2-1.14,26.36.08,39.54.35,8.64.18,17.55.51,25.57-4l5.86-.72c7.39,2.63,14,.2,20.47-3.13l3.22-.52c4.82,1.21,9.58,2,13.56-2.15l7.91-.64c17.92,4.13,34.19-.55,49.69-9.31l3.75-.88a42.55,42.55,0,0,0,26.8-9.84l9.64-5.47c9-.72,13-7.49,14-14.7.88-6.65-7.28-6.3-11.36-9.15-.25-.17-.34-.57-.51-.86a1.83,1.83,0,0,1,1.41-1c8.18,1.58,12.77-1.73,13.69-10,6.58-2.41,9.43-9.17,15-12.79,2.54-.3,3.54-1.93,2.83-4.15-.52-1.64-1.85-2.84-3.64-.95l-12-.54-.76-5.49,8.7-.69c2.91,2.11,5,1.36,6.42-1.82,2.52-1.15,5-2.37,6.44-4.93,3.19-.8,3.7-2.7,2.2-5.41l.21-8.36c1.41-2.61,1.13-4.58-2.08-5.41a2.64,2.64,0,0,1-1.1-1.52c-.1-3.84-2.29-5.77-5.88-6.41l-2.7-3.45c-3-7.63-3.18-16.22-8-23.19A31.85,31.85,0,0,1,879,461.2c3.38-4.53,5.09-9.77,6.42-15.17,2.39-4.41,6.09-7.5,10.16-10.24l31.6-12.89,3.77-.71c4.33,2.23,8.78,1.37,13.23.48L949,425c.94,2.14,2.44,3.22,4.86,2.65a2.26,2.26,0,0,1,1.48.84c.61,2.47,2,3.78,4.7,3.26a2.14,2.14,0,0,1,1.5.74c.39,2.66,2.06,3.61,4.58,3.45a1.57,1.57,0,0,1,1,1.2c.67,9.23,6.68,12.85,20.26,12.2a1.64,1.64,0,0,1,1.34.79c1.81,4-7.5,9.74,2,12.48h0c1,7.58,1,15.54,8.19,20.65,3.89,2.52,3.93,6.07,2.68,10-2,.91-3.13,2.3-2.82,4.6l-5.67,4.5c-4.7-.62-8.36,2.26-12,4.2-4.07,2.15-4.39,5.52.29,8.06,3.59,3.58,6.28,8.08,10.93,10.56,7.69,5.86,15.44,5.29,23.24.24l20.75-21.2c4-1.38,6.78-3.92,7.86-8.12l9.7-6.84c2.39.56,3.9-.56,4.91-2.61l7.43-3.56c2.84.61,4.32-.64,4.69-3.42l2.27-2.22c3.68-.69,5.51-2.91,5.56-6.64,6.55-9.36,14.43-17.79,19.5-28.17,2.74-.71,3.56-2.45,2.73-5.08,1.36-4.46,4-8.11,7.1-11.51,4.37-1.25,7.08-4,7.72-8.6L1134.27,399c3.72-.12,5.7-2.22,6.46-5.7l18.13-14.9c2.78.15,4.23-1.14,4.31-3.94l6.25-6.14c2.69-.17,4-1.55,3.91-4.29l6.06-6.18c2.61.22,4.19-.86,4.49-3.55l3-1.28c4.13.81,8.34,2,11.5-2.22l7.91-.66c12.77,1.94,25.41-2.55,38.18-.79,4,.55,10.17-2.75,8.22,6.56-.94,4.51,4.19,6.27,8.64,6.4l4.75,3.6c-4.72,6.52-10.27-.52-15.3.94l-3.26-1c-.83-2.94-2.57-3.82-5.35-2.37l-5.09-.9c-3.3-3.6-6.43-2.34-7.88,1.3s2,4.46,4.74,4.93c3.77.65,7.06,4.23,11.32,1.89l6.06.89c-2.71,9.2-9.5,5-14.41,3.63-5.5-1.59-10.51-4.47-16.24-1.21l-7.85-.74c-3.28-3.86-7.36-3.25-11.54-2.06l-4.49,0c-2.9-1.31-4.45-.06-5.18,2.74l-8.19,8.66c-4.43,1.36-7.52,3.84-7.5,8.93l-5.18,7.36c-2.88.55-3.47,2.46-3,5l-9.35,15.54c-2.67.57-3.77,2.16-3.13,4.86a1.72,1.72,0,0,1-.72,1.41c-4.37,1.31-5.11,4.93-5.58,8.73a2.12,2.12,0,0,1-.67,1.52c-2.75.58-3.84,2.2-3.12,5-3.06,6.9-7.94,12.43-13.19,17.69-2.72.2-4,1.67-3.75,4.38-9.51,11.79-19.36,23.34-27,36.5-3.34,1.94-4.61,5.27-5.79,8.66L1091.1,514a4.5,4.5,0,0,0-3.44,4.48l-13,16.08a4.82,4.82,0,0,0-3.68,4.41c-7.06,5.49-3.83,10.83.24,16.16a5.55,5.55,0,0,0,3.13,4.92l1.85,1.82c1.4,3.05,4.34,2.87,7,3.32l1.12,2.15c1.86,10.09,3.09,20.4,9.58,29,.14,2.24.53,4.39,2.25,6,.36,3.72,1.44,7,5.16,8.77l3,3.58c5,7.19,3.19,16.28,6.65,23.89l.54,7.1c-.79,4.5-.25,8.7,2.86,12.29.07,2.65.16,5.29,3.11,6.57,4,4.51,9.76,5.41,15.1,7.15l7.73,5c.66,2.27,2.33,3.24,4.53,3.53l20.49,18.87a4.81,4.81,0,0,0,4.08,4.06l26.94,28.76a4.31,4.31,0,0,0,3.72,4.41l19,24.33c.37,2.14,1.07,4,3.42,4.75l6.91,9.62c.16,2.25,1,4,3.27,4.88l5.16,7.4c-.23,2.47,1.08,3.86,3.24,4.66l11,15.93c-.05,2.39,1.26,3.85,3.29,4.81l6.79,9.63c0,2.46,1.5,3.77,3.47,4.78a1.22,1.22,0,0,0,.82,1.33c.29,2.17,1.2,3.9,3.4,4.68l6.87,9.71a5.17,5.17,0,0,0,3.35,4.76l2.57,3.54c.06,2.41,1.43,3.87,3.51,4.8l6.83,9.56c0,2.43,1.35,3.9,3.43,4.85l6.89,9.53c-.05,2.45,1.38,3.84,3.41,4.83l6.82,9.57c0,2.43,1.48,3.8,3.47,4.79a1.2,1.2,0,0,0,.84,1.31c.33,2.14,1.14,3.93,3.38,4.7l6.83,9.7a5.35,5.35,0,0,0,3.32,4.86l2.55,3.46a22.12,22.12,0,0,0,7.71,10.95,1.19,1.19,0,0,0,1,1.25c.33,2.11.91,4.05,3.33,4.68l5.11,7.6c-.12,2.35,1.12,3.77,3.18,4.62l4.79,7.77c.9,3.48,2.1,6.79,5.38,8.81l3.7,7.48c-.63,3.46,1.42,5.9,3.22,8.44l1,3.87c1.76,8.78,4.22,17.3,9.15,24.91a11.92,11.92,0,0,0,3,8c-.47,4.5.13,8.62,4.16,11.49l11.43,17.43a19.6,19.6,0,0,1,.39,10.67l-1.5,3c-1.84,1.22-3.13,2.76-3,5.13a1.44,1.44,0,0,0-.71,1.53c-5.38,4.48-5.67,10.91-6.54,17.12l-20.08,24.11a14.14,14.14,0,0,0-7.59,8.63,1.16,1.16,0,0,0-.85,1.32c-4.56,2.85-.87,7.63-2.61,11.15l-5.09,4.27c-5.25.61-8.84,6.61-14.9,4.59-5.13-9.39-5.13-9.39-18-.4a7.46,7.46,0,0,0-6.25,1.93l-3.94.59c-8.16.82-17.09-.87-23,7.11l-14,11.08c-3.61.63-6.77,2-8.94,5.14l-7.4,3.74-28.91,9.78-8.52-.08c-10.62-4.27-22.95-2.41-32.89-9.24-1.79-1.23-3.86-.23-5.73.79-8,4.36-16,8.63-24,12.94l-4.74,2.43c-15,4.54-29.81,9.34-43.42,17.27l-3.84,1.2-35.16,9.32-3.94.6c-5.45-.86-10.73-.48-15.7,2.15l-3,.25a551.15,551.15,0,0,0-61.6,3.36l-84.53,0c-8.07-2.55-16.63-2.1-24.79-4.83-31.79-10.63-64.23-19.44-94.45-34.39l-2.89-1.38c-1.27-1.84-2.8-3.23-5.26-3a1.29,1.29,0,0,0-1.52-.62c-1-1.91-2.46-3.12-4.79-2.8l-3.22-1.44c-.81-2.41-2.61-3.12-5-2.9l-5.47-3.16c-.93-2-2.36-3.35-4.76-3.2a1.46,1.46,0,0,0-1.51-.83c-.68-2.37-2.43-3.14-4.69-3.13l-3.75-2.89c-.69-2.14-1.94-3.61-4.36-3.71l-32.67-29.15c-.44-2.34-2-3.53-4.19-4.08h0a5,5,0,0,0-4.15-4.06l-2.06-2.08a5.1,5.1,0,0,0-4.05-4.19l-12.85-14.16c-.6-3.23-2.66-5.25-5.5-6.62l-4.52-5.78a4.61,4.61,0,0,0-3.57-4.68l-7.1-9.6c.07-2.39-1.19-3.79-3.35-4.53l-7-9.83c.16-2.41-1.2-3.71-3.26-4.52L630,1036.39c-.14-2.12-.44-4.14-2.88-4.9l-1.82-3.25c-1.77-7-2.84-14.24-8.1-19.78l-5.09-7.15c-1.25-4.07-4.09-6.73-7.71-8.7l-11-15.89c-1.9-7.69-4.28-15.18-9-21.73l-1.23-3a6.62,6.62,0,0,0-2.71-5.39l-10.13-15.05-5.88-22.73a8.07,8.07,0,0,0-1.91-6.13c.37-1.87-.71-3.07-1.94-4.2,4.45-16.31,18.63-24.42,29.8-35,3.89-3.68,9-6.08,13.52-9.07,2.21,0,4-.71,5-2.87a1.11,1.11,0,0,0,1.27-.88c3.58-.77,6.88-2,8.91-5.35a1.18,1.18,0,0,0,1.39-.73c3.66-.67,6.79-2.17,8.76-5.53a1.38,1.38,0,0,0,1.51-.67c4.6-1,8.24-3.68,11.48-7l5-3.32a32.35,32.35,0,0,0,14.74-9.72,164.67,164.67,0,0,0,24.27-17.1c2.41,0,3.79-1.26,4.44-3.48l5.91-4.45a4.87,4.87,0,0,0,4.58-3.63l11.79-9c2.44.07,3.78-1.3,4.48-3.47l9.89-6.84c2.43.11,3.83-1.2,4.63-3.34a1.49,1.49,0,0,0,1.54-.75c2.41.14,3.89-1.14,4.87-3.19a1.13,1.13,0,0,0,1.32-.8c3.44-1,6.85-2.05,8.72-5.53a1.44,1.44,0,0,0,1.53-.74c3.65-.64,6.88-2,8.92-5.3l9.61-4.83L824,723.18l3.9-1.11A180.46,180.46,0,0,0,863,712.74l4-.7c5.28.86,9.92-1.23,14.6-3.16l3.93-.65a6.77,6.77,0,0,0,7.44-2.18l3.07-.5c1.56,1.13,2.88.66,4.06-.63,2.82.26,5.64.6,8.14-1.25a3.5,3.5,0,0,0,4.1-1.08l6.18-1.16c2.81.78,5.41.62,7.55-1.65l2.86-.59a3,3,0,0,0,4-.46l16.65,0a6,6,0,0,0,6.1.52l3,.47c2.12,2.17,4.67,2.48,7.46,1.69l6.15,1.2c1.11,1.31,2.43,1.93,4.13,1.19,12,3.8,23.81,1.33,23.46-5.67-.4-8-7-12.11-14.61-16.58-5.86-3.45-11.67.14-17.44-4.61-4.75-3.91-12.66-10.7-19.56-8.38-6.38,2.15-10.87,3-15-1.39-1.74,16.2-15.11,22.27-25.16,31-.91-6.71,4.89-11.26,5.62-17.44,2.21-.18,5.35,1,5.74-2.42.28-2.51-2.11-2.35-4.17-3-6-1.76-12.07-4.2-6.35-12.35,1.42-2,2.37-4.42,1-6.72-1.86-3.08-4.14-.31-6.27-.12-9.24.83-17.54,6.31-26,7.36C868.26,664.65,859.86,665,852.89,671.76Z"/><path class="cls-2" d="M2681.2,1209.87c-4.14,13.65-15.51,14.48-25.1,16.44-11.66,2.38-23.78,2.76-35.8,2.08-2-.11-4.9.1-5.93-1.09-7.58-8.75-17-4.18-25.68-3.79-19.57.89-38.78-2.9-57.42-7.22-11.84-2.75-23.54-6.16-35.68-8-6.89-1-6.48-7.6-5.93-12.38,5-43.45,10.58-86.84,15.6-130.29,4-35,7-70.07,11.47-105,4.32-33.88,11.12-67.48,14.54-101.44,2.77-27.51,6.16-54.92,9.71-82.31,1.14-8.8,1.76-18.07,5.1-26.09,4.47-10.74-1.55-16.89-8.18-21.42-21.2-14.52-21.62-14.15-13.76-37.61,1.27-3.79,2.54-6.82,0-10.49a6,6,0,0,1-.31-4.86c14.08-36.5,23.8-74.4,35.84-111.55,2-6.05-2.62-11.48.12-17.94,2.19-5.16,4-9.49,8.59-13.16,6.82-5.45,13.81-11,17.33-19.64,2.05-5,7.2-5.11,11.56-4.49,6.23.89,11.06-.17,15.49-5.11,2.62-2.93,6.73-4.63,10.34-6.57,7.58-4.09,17.42-6.06,8.41-18.72-4.56-6.41,1.76-12,7.62-15.52,2.65-1.6,9,1.81,7.77-4.73-.93-5-1.5-10.79-8.27-12.94-7.15-2.26-14.36-18.37-11-24.72,1.89-3.53.79-5.25-.67-8.16-3.3-6.6-3.62-12.92,3.19-18.21,4.63-3.59,5-7.75,3.46-14.2-3.81-16.4-5-33.43,4.1-48.91,3-5.15,7.78-8.25,14.18-10.58,7-2.54,15.61-6.35,17-16.32.31-2.19,1.67-5.19,3.42-6,6.33-3.11,10.14-7.39,10.43-14.73.06-1.53,1.42-4.53,4-3.67s3.18,3.93,2.73,6.13c-1,4.74-1.34,7.87,5.1,8.89,2.36.37,4.59,4.88,5.86,7.93s2.77,7.55-1.48,8.89c-4.73,1.49-4-3.1-4.23-6-.2-2.36-1.36-4.08-3.79-3.81-2.74.3-2.29,2.79-2.59,4.8-1.17,7.81,7.48,16.23,14.59,14,8.46-2.63,17.42-4.22,24,2.82,7.74,8.32,11.17,18.73,7.82,30.33-3.46,12-3,24.66-7.33,36.55a13.76,13.76,0,0,0,3.21,13.48c6.88,6.51,4.15,12.08.27,18.11-1.67,2.6-3.37,4.47-.93,8.09,5.75,8.51,4.48,11-6,14.83-4.1,1.49-8.8,2.25-9.35,8-.44,4.5,1.18,7.77,4.66,10.69,3.63,3.05,5.82,3.37,9.05-.87,8.27-10.84,12.59-10.13,18.32,2.43,1,2.14,2.49,4.69,2.07,6.69-2.71,12.74,6.15,16.16,15.12,19.95,6.93,2.92,13.77,6.11,20.37,9.7,4.3,2.33,8.81,2.95,12.82,1.17,8.39-3.73,12.31-.36,16.05,7,2.37,4.66,7,8.2,10.85,12.06,6,6.12,8.46,12.82,8.51,21.91s5.23,18.33,6.25,27.7c3.19,29.42,20.78,53,31.21,79.43a326.1,326.1,0,0,0,13.3,29.91c4.52,8.77,2,14.8-6.16,18.33-10.46,4.51-19.36,10.08-22.86,21.73a4.76,4.76,0,0,1-2.86,2.8c-13.13,3.23-10.92,12.66-10.83,22.82.49,53.58,11.67,106,16.51,159.1,4.66,51.15,9.81,102.24,8.2,153.66-1.27,40.79,2.26,81.29,6.37,121.73,1,10.28-4.11,13.55-11.12,16.11-5.7,2.09-12,2.89-18,3.64-6.84.85-13,1.69-18,7.77-4,4.91-11,6.36-17.08,4.43-12.13-3.82-24.47-2-36.68-2.31-5.94-.14-12.14-.67-17.13,6-3.41,4.59-11.5,3.5-17.57,3.21a202.51,202.51,0,0,1-22.38-2.86c-3.4-.55-6.31-1-9.82.64C2692,1223.6,2689.37,1222.59,2681.2,1209.87Zm46-867c-.52-5.73-1.5-11.06-5.65-15.16-2.89-2.85-6.27-2.25-9.47-.79-1.75.8-2.41,3.07-1.13,4.31,4.08,4,2.67,9.81,5.23,14,2.09,3.4,1.39,10.81,7.12,9.33C2727.3,353.54,2726.49,347,2727.24,342.88Zm-84.67,6.43c4.1-.5,12-15,10.41-17.94-.4-.73-1.56-1.67-2.19-1.55-3.63.69-6,3.49-7.32,6.46-1.61,3.52-5,6.78-3.4,11.2C2640.41,348.43,2642,348.94,2642.56,349.31Z"/><path class="cls-3" d="M7721.88,1196.8c-8.23-14.09-18.94-25.45-33.85-33.2-8.92-4.64-19.86-4.94-27.26-11.28-13.7-11.73-30.86-17.57-44.65-29.45-28.53-24.57-62-42.59-91.4-66.12-11.72-9.39-26.45-12-38.33-21.36-6.41-5.07-17.52-11.41-24.28-11.54-15.1-.3-23.23-7.9-32.57-16.86-3.91-3.75-10.76-4.21-15.61-7.22-28.44-17.69-56.53-35.95-86.05-51.82-7.89-4.24-12.36-12.5-20.31-16.77-2.52-1.36-3.45-4.32-2.36-8.06,2.83-9.69-.29-16.63-9.81-21.61-15.2-8-22.89-23.18-33.11-36.19,5.21,0,9.7,1.15,14.26,1.86,16,2.49,26.64-9.5,39.49-15.2,11.25-5,16-18.2,27-24.44,3.41-1.94,4.39-6.69,4.78-11a36,36,0,0,0-4.92-22.62c-1.44-2.37-3.51-6.66-.84-7,9-1.2,11.18-17.62,23.73-10.11,2.08,1.24,4.7-1.15,5.37-3.63,1.85-6.86,7.09-6.36,12.31-6q49.22,3,98.43,6.05c6.51.4,13-.94,19.33-1.17,18.25-.64,35.94-6.46,54.38-5.06,21.15,1.61,42.35,2.65,63.53,3.82,3.2.18,7.62,1.46,8.29-3.46.74-5.42-3.73-5.77-7.56-6-10.94-.56-21.9-.76-32.83-1.47q-102.49-6.66-205-13.56c-8.64-.59-18.51,0-25.41-4-5.56-3.26-8.8-3.57-13.35-.87-2.87,1.7-5.76,1.82-8.88,1.63-20.17-1.2-40.35-2.26-60.51-3.58-10-.66-11.72-3.91-7.09-12.58,1.1-2.06,2.89-3.94,1-6.42-5.11,1.49-3.69,12.15-10.81,9.05-4-1.74,3.24-4.9,2.1-10.08-5.13,5-12.49,5.17-15.82,11.15-2.51,4.51-6.36,5.4-11.07,5.91-5,.55-10.51,1.26-14.81,3.67-8.6,4.83-15.68,2-21.08-4-9-10.09-19.74-7.89-30.07-5-7.7,2.17-12.55-3.13-14.06-6.82-2-4.81,2.6-10.19,8.68-11.73,4.63-1.17,9.4-1.78,14.08-2.78,20.15-4.31,21.93-8.49,10.17-25.27-8.13-11.61-18.51-21.83-19.87-37.21-.21-2.4-1-6.69-7.34-5.84-5.22.71-13,1.5-16.48-.31-13.51-7.05-29.79-4-42.53-13.2-4.64-3.36-11.15-2.81-16.74-.16-20.61,9.79-38.52,23.34-54.73,39.28-4.51,4.44-7.7,9.43-8.5,15.95-.88,7.19.66,12.12,8.91,13s16.31,2,24.38,3.42c2.91.53,6.93.6,4.67,6.4-7.76,19.86-28.88,24.74-42.13,38.37-.73.75-2.61.35-4,.53-14.88,2-32.55,19-31.28,33.4,1.83,20.66,9.08,40.9,17,59.46A304.22,304.22,0,0,0,7017,876.84a19.12,19.12,0,0,1,2.09,14.9c-4.46,18.59-9.07,37.09-15.49,55.18-5.92,16.69-13,33.72-14.5,51-1.58,18.72-3.06,37.25-7.64,55.45a51.3,51.3,0,0,0-.46,23.21c2.37,12,4.39,24.48,3.84,36.63-.57,12.38.66,21.86,11.77,29.84,6.54,4.7,12.56,6.23,18.56,3.15,9-4.62,17.7-8,28-6.08,4.06.75,6.61-.43,4.86-5.72-2.45-7.44-3.65-15.33-6.43-22.62-2.35-6.18-1.65-10.79,2.34-16,15.93-21,30-43.27,43.7-65.76,4.17-6.84,8.36-11,16.84-10.08,8.64.94,15.23-2.78,19.53-10.5,1-1.82,1.36-4.91,5.44-3.75.5,2.28-.87,5.69,1.6,7.36,5.35,3.63,5.53,6.79.25,10.69-1.45,1.07-1.61,3.71-2.78,5.33-8.1,11.18-8.91,26-17.36,36.72-22.89,29.15-35,63.47-45.12,98.11-3.26,11.18-9.27,24.71,2.7,39.27,15.62,19,36.19,16.28,52.18,8.89,14.85-6.86,28.73-15.84,43.54-22.81,17.31-8.15,32.34-21.44,53-23.75-.55,10.92-1.64,21.75.3,32.5,2.41,13.42,9.28,20.79,18.32,18.86,6.31-1.35,12.44-3.45,17.8-7.51,13-9.87,14.4-22.23,6.87-36.66-4.49-8.61-9.4-19.31-4-29.18,4.74-8.66,6.81-17.66,8.77-27,2.6-12.39,6.15-14.64,17.58-11.77,13.35,3.36,21.21-1.74,24.1-15.42,1.77-8.36,4.25-16.61,5.5-25,.91-6.11,4.19-7.67,9.13-6.27,22.91,6.52,47,8,69,18.58,20.2,9.73,41.75,16.58,61.3,27.82,4.63,2.66,8.37.72,12-2.51,2.29-2,4.44-6,8.53-2.77,19.42,15.35,43,23.59,63.42,37.19,21.82,14.55,47.71,22.08,67.65,39.79,1.94,1.72,5.49,3.9,7.2,3.2,6.77-2.78,8.29,2.43,12.1,5.7,9.6,8.23,17.78,21.39,34.09,13.47,4.46-2.17,6.86,1.37,9,4.58,10.13,15,30.43,21.71,47.38,15.72C7724.06,1215.07,7727.53,1206.46,7721.88,1196.8ZM7232,1096.51c-1.82.88-3.52,2.14-5.43,2.67-4.51,1.25-9.05,10-12,5-2.48-4.32,5.73-10.2,9.52-15.13,1.67-2.17,4.44-.9,6.32.73,1.45,1.26,3.87,1.59,4.14,4.05C7234.47,1095.49,7233.16,1095.93,7232,1096.51Zm8.37-316.21c-5.23-4.89-15.66-3.75-16.58-14,3.91-2.21,4.91,3,8.08,2.68,1.63-.18,3.43.59,4.5-1.18,4.11-6.77,4.09-6.79,13.73-6.46l12.42-.2c5.46-2.18,10.92-1.86,16.37,0q11.23.34,22.47.68c4.69.15,7,4.11,4.43,6.65-9.65,9.45-16.08,21.62-26.8,30.21-7.48,6-12.61,4.15-17.77-2.38C7255.58,789.24,7248.19,784.46,7240.33,780.3Z"/><path class="cls-4" d="M2458.94,756.51c-4.74,0-5.37,4.86-8.48,3.65-3.92-1.54-1.83-5.37-2.14-8.19a37.61,37.61,0,0,0-3.1-11.79c-3.79-8.29-5.69-16.68-.31-25.41,4.9-8,2.1-15.92-1.59-23.48-5.09-10.43-9.86-21.09-15.78-31a261.91,261.91,0,0,1-27-64c-.51-1.83-.19-4.62-2.92-4.57-3,.06-2.24,2.75-2.23,4.65.11,25.17-3.24,49.72-12.61,73.29-5.25,13.19-3.72,26.89-1.89,40.46.51,3.8,2.31,7.44-2.89,9.29-3.19,1.14-3.3,4.19-3.71,6.81-2,12.84-4.14,25.67-5.8,38.56a80.52,80.52,0,0,1-7.11,25.26c-1.6,3.28-.48,5.85-.68,8.75-1.43,20.41-2.74,40.68,1.33,61.1,4,20.14,0,40.28-3.27,60.2-4.45,26.76-9.19,54-6,80.7,4.74,39.52-11.24,73.54-22.85,108.95-3.52,10.75-8,21.11-6.32,32.84.62,4.2-.17,8.73-3.29,11.51-9.86,8.78-7,19-3.92,29.22,2.78,9.15,6.23,18.05,12.25,25.77,5.41,6.93,4.16,12.79-3.91,16.24-12.09,5.17-24.8,4.7-37.3,1.78-7.52-1.76-9-8.71-10.39-15.11-5.86-27.67-8.48-56.88-2.18-83.33,9-37.85,5.12-76.39,13-113.85.28-1.32.19-3.25,1-3.84,14.72-10.44,6.06-23.78,5.29-36.57-2.95-48.87-25.6-91.76-41.2-136.66-13.11-37.73-15.8-38-55.32-43.06-43.84-5.66-88-7.77-132-10.7-12-.79-23.86-2.18-35.81-3.07-13.69-1-27,.88-40.63,3.15-30.09,5-60.61,6.42-90.61-2.1-2.57-.73-5.46-1.65-7.3-3.42-5.07-4.89-10.06-6.58-16.4-2.33a7.65,7.65,0,0,1-6,.86c-12.5-4.49-20,3.6-28.61,10.23-11.94,9.19-26.84,9.12-41,11-5.17.69-5.87-4.31-6.83-7.58-3.17-10.84-4.89-20.93-18.46-26.08-10.89-4.13-17.29-15.82-21.88-27.39-2.61-6.57,0-9.09,5.45-10.26,6.45-1.37,12.92-.44,19.37.77,21.57,4.07,43.65,9.21,65.22,5.35,31-5.55,62.68-5.29,93.54-11.74,11.36-2.38,23-3.72,34.53-5,7.69-.82,16.44-4.52,21.51,5.86.66,1.35,4.32,1.56,6.64,1.75,29.47,2.39,58-1.1,85.21-13.38,22.26-10,45.31-17,70-18.9,18.08-1.42,32.82-13.16,49.5-19.15,17.29-6.21,28-23.21,46.23-28.06,4.39-1.17,1.47-4.68-.19-6.37-6.63-6.8-6.42-13.83-1.43-21.29,3.22-4.81,2.66-9.52.25-14.56-5-10.46-7.59-23-15-31.12-8.73-9.61-15.28-23.69-34-21.3-18.92,2.41-36.73-6.91-54.47-13-22.24-7.59-44-14.75-68-17.44-29.19-3.27-56.16-17-82.11-31-8.2-4.44-14.67-6.57-21.28,1.89-2.88,3.68-7.55,5-12,4.82-6.36-.23-12.19.79-17.72,4-2.37,1.37-5.59,2.57-7.48-.12-2.35-3.35.65-5.54,3-7.6,1.91-1.68,6.07-2,5.11-5.45-.9-3.27-4.94-1.37-7.14-2.55-9.35-5-20.16-3.23-29.79-6.78-3.4-1.25-9.41-1.83-8-5.75,1.18-3.31,6.54-6.88,11.85-4.86,5.65,2.15,11.34,7.58,16.14-1.22.12-.22,1.47-.12,1.9.24,8.88,7.46,18.56,3,27.5,1,18.27-4,35.87-2.89,53.64,2.52,19.54,6,40.07,4.17,60.1,6.45,7.89.9,16,1.65,22.87,5.34,18.53,9.91,39.09,12.1,59,16.92a46.16,46.16,0,0,0,21.29.39c23.84-5.27,47.68-.6,71.52.59,3.39.17,6.72,1.21,10.17.24,4.37-1.23,6.29-4,5.37-8.43-1.07-5.1-4.89-4.23-8-2.83-7.89,3.48-11.07.83-14.23-7.09s-3.68-18.52-14.71-22c-2.7-.86-1-4.9.34-7.33,3.34-6.16,1.5-11-.73-17.73-6-18.08-8.3-37.61-1.24-56,4.23-11,14-16.82,26.92-16.9,8.08,0,16.23-2.12,24.2-4,14.38-3.35,34.5,5.4,41.69,18.56,9.91,18.14,11.64,37,6.44,57-3.19,12.34-6.33,25.13,2,37.29,3.58,5.2,7.74,8.43,14,9.1,9.86,1.05,19.82,3.82,29.52,3.08,31.7-2.43,43.54,18.89,46.3,41.23,3,24.17,11.06,46.69,22,67.65,14.22,27.29,18.69,56.84,26.57,85.77,5.56,20.42,7.71,41.39,13.44,61.65.52,1.83.7,4.57-.29,5.88-7.63,10.1-6,22.1-7.3,33.49-.33,2.9.5,7.92-3.82,5.89-3.21-1.51-11.29,1.17-9.56-7.05C2455.17,769.54,2457.09,763.41,2458.94,756.51Z"/><path class="cls-1" d="M6753.18,451.87c-2.19,3.23-5.89,2.45-7.82,5.48.52,3,3.32,1.13,4.75,2.08,5.06,3.37,9.62-4.77,14.17-1,17,14.24,34.15,28.48,33,53.91-.75,16.23,3.4,32.84-3.66,48.54-2,4.41-.22,6,3.7,7.43A64.72,64.72,0,0,1,6816.46,580c2.3,1.93,5.25,4.21,8,4.32,16.65.65,28,10.84,38,22,20.28,22.62,44,41.84,63.37,65.36,14.32,17.34,22.73,35.33,21.94,58.64-1.38,41.06-7.63,81.84-6.64,123,.17,6.9-2.22,13.62-5.39,19.64-3.56,6.74-5,17.14-17.88,10.7-3.45-1.72-11.23-1.39-15.52,4.35-3.15,4.2-7,2.21-10.88-.14-4.89-3-2.45-6.25-1.14-9.68a247.1,247.1,0,0,1,20.39-42.38c4.31-7,4.94-14.87,5.42-22.71,1.07-17.15.67-34.25-3.19-51.09a156.33,156.33,0,0,1-4.18-35.61c0-5.53-.48-11.39-5.73-14.66-19.56-12.21-35-29.58-53.83-42.68-6.05-4.21-8.28-4-12.73,3.14-15.62,25-24.87,53.19-39.84,78.47-2.88,4.87-2.88,10.23-1.91,15.91,1.37,8,5.1,16.56-4,23.18-1.34,1-.76,5.23-.34,7.85,1.95,12.07-.85,23.86-1.74,35.76-.48,6.5-3,11.09-10.42,11.42-4.26.19-7.85,3.14-8,6.84-.33,10.37-3.89,21.05,0,31.07,2.43,6.25-1.8,10.94-1.1,16.85,2.93,24.78.56,49.51-2.18,74.24-1.2,10.8-.08,21.85-.1,32.79,0,2.81,1.74,4.27,3.74,5.69,2.62,1.87,3,3.84,1.36,6.94-4.32,8.11-.1,13.81,7,16.47,6.72,2.5,9.75,6.8,11.37,13.15,8.18,32.14,16.42,64.27,19.25,97.46.14,1.69-.1,4.12.88,4.91,12.27,9.89,11.59,28.16,25.11,37.6,7.69,5.36,9.5,15.23,11.65,24.11,1.45,6-2.56,8.48-7.28,8.68-11.62.48-23.3.67-34.91.06-6.84-.35-16.48-13.88-15-20.46,1.25-5.66-2.16-8.25-5.72-10.91-5.76-4.31-11.72-8.39-15.81-14.48s-6.39-11.59-1.45-18.77c4.33-6.3,1.33-11.63-5.26-14.86-8.29-4.07-11.87-8.95-13.12-19.81-2-17.28-11-33.49-19-49.37-1.12-2.23-3.37-3.31-5.91-3.59-2.86-.32-5.79-1.44-6.92-3.92-5.77-12.74-14.8-23.83-18.54-37.6-6.06-22.29-3.33-45.39-6.67-68-2.33-15.72-10.5-28.76-16.06-43-2.45-6.27-6.57-2.16-9.77.27-23.5,17.82-44.57,38.43-66.46,58.1-22.67,20.37-44.6,41.46-63.5,65.48-1.26,1.6-3.49,3.05-3.71,4.77-1.38,10.82-6.52,13.06-16.25,8.65-3.77-1.71-13.54,9.07-12.39,14.53,1.1,5.24-1.5,7.58-4.27,10.54-30,32-61.29,62.48-95.39,90-6.78,5.48-8.18,15.64-17.51,18.89-2.11.73-.5,3.87.63,5.42,5.19,7.18,3,13.7-.71,20.73-1.56,3-3,4.09-6,4.08-18.49,0-37-.11-55.47.05-5.08,0-6.65-2-6.11-6.84a23.32,23.32,0,0,1,7.65-15.26c11.64-10.4,20.41-23.07,28.4-36.22,23.1-38,53-70.48,82.23-103.56,7.62-8.64,13.21-19.22,23.27-25.64,3.07-2,1.91-3.84.14-5.79-4.77-5.26-2.27-9.66,3-11,12.9-3.32,17.05-14.31,22-24.12,7.08-14.09,16.44-25.93,29.11-35.16,4-2.9,7.29-6,8.79-10.91,6.8-22.24,19.45-41.35,32.87-59.94,8.51-11.79,15.47-24.82,26.6-34.62a3.67,3.67,0,0,0,1.26-1.56c6.28-26.08,28.29-43.53,37.38-68.09,1.82-4.92,6.15-8.05,9.79-11.69s9.72-7.23,1.34-12.66c-2.92-1.89-.57-4.3,1.64-5.5,8.1-4.39,10.67-12,12.07-20.31a14.63,14.63,0,0,1,2.77-6.45c3.44-4.71-.34-11.89-6.29-11.4-5.28.44-10.39,3.76-15.24-1.43-5.56-5.94-9.58-12.92-10.45-20.75-1.82-16.41-2.48-32.78,9.37-46.76,6.42-7.59,5.35-18.23,9.55-26.86,5.67-11.67,11.85-22.36,26.05-25.66,6.93-1.61,13.44-5,20.14-7.59,9.5-3.68,11-7.13,5.56-16.08-3.37-5.56-5-11-3.28-17.25.47-1.76.82-3.68-.83-4.66-8.92-5.29-4.09-10.62-.14-15.87,2.91-3.87,4.59-7.1-.32-11.14-4.67-3.84-2.5-10-2-14.63,2.08-19.27,5.55-39.31,27.09-45.93C6722.43,452.81,6737.62,448.53,6753.18,451.87Z"/><path class="cls-4" d="M1839.13,599.22l3.78.65c5.74,3.75,11.51,4,17.31.12l5.87-.81a28.86,28.86,0,0,0,18.27-.05l14.42,1c10.44,2.95,20.88,3.71,31.3-.11L1938,599c9.75,3.58,19.17-.78,28.75-1.31,2.84-.16,6-1.58,6-5.62a3.14,3.14,0,0,1,.83-1.6c2.81-.94,3.71-2.68,2.26-5.4l.76-5.11c5.19-9.88,5.86-20.19,2.85-30.83l.68-3.77c4.91-4.2,2.48-11.67,7.11-16l2.86-.37c2.61-.26,5.17-.43,6.53,2.53l-1.84,2.88c-4.63,2.65-4.53,7.67-5.76,11.93-.55,1.88.14,4.28,2.65,4.54,2.17.22,3.73-1.09,4-3.49a35.24,35.24,0,0,1,9.49-11.14l5.17.15c-.68,7.67-7.9,11.68-10.28,18.39-3.58,5.41-8.86,11,1.66,14.84,3.58,1.29,1.87,3.54,1.38,5.78-.85,3.86-4.08,7.21-2.54,11.59l-.56,3.13c-2.67,3.32-4.28,7-3.34,11.35l-3.62,5c-3.27,1.16-6.79,2-8,5.89l-7,3.71c-15.76,4-31.54,7.88-46.63,14.07l-3.81.67c-6.13-2.61-11.25.33-16.41,3l-5.14.6c-5.48-1.22-11-2.62-15.73,1.95l-12,.72c-18.51-1.28-37-2.61-55.52-3.77-2.3-.14-4.65.65-7,1l-9.3-.56c-7.31-2.73-14.74-4.43-22.6-3l-3.73-.89c-4.14-4.5-9.7-5.55-15.36-6.37L1751.23,616c-4.32-3.95-8.62-7.95-15-3.76-11.57,13.55-27.76,23.29-34,41.24-3.44,2.38-5.07,5.45-3.62,9.67l-2.55,4.7c-6.32,10.16-.3,21.76-3.7,32.45a11.48,11.48,0,0,0,3.25,11.19l.64,3.18c-.18,6.69-3.19,13.71,2.36,19.72l1.81,4.91c-1.13,2.34-.46,4.12,1.68,5.45l-.11,7.35c-6.2,10.56-6.12,22.94-9.89,34.2-11.94,20.58-25.7,39.76-44,55.21-6.25,5.27-10.54,11.33-11.38,19.57-5.38,9.72-2.86,20-2,30.1l-.61,7.22c-2.81,6.58-5.77,13.15-3,20.54l-.76,5.81a19.23,19.23,0,0,0-3,16.84l-.16,8.31c-1.65,2.79-4.06,5.33-2.87,9l-.17,8.68c1.64,5.48-.17,12.74,7.73,15l3.73,2.58c2.38,5.93,6.89,8.12,13,7.4l7.58,4.76c.4,2.94,2.15,3.88,4.92,3.28l5.23,3.2c.58,2.74,2.24,3.74,4.95,3.07a29.43,29.43,0,0,1,9.81,8.54c0,3.75,2.11,5.75,5.58,6.57,9.62,10.55,17.88,22.13,25.84,33.93-.79,2.73,0,4.54,3,5.08l3.13,5.22c-.62,2.77.27,4.55,3.25,5a1.5,1.5,0,0,1,.76,1.3c-.63,2.73.33,4.44,3.17,4.94a1.78,1.78,0,0,1,.7,1.47c-.61,2.76.72,4.18,3.29,4.74,5.17,6.7,11,12.9,14.7,20.68.29,2.9,2,3.84,4.71,3.44l9.46,5.54c3.29,4.44,8,6.05,13.21,6.73a1.6,1.6,0,0,1,1.37.81c.35,2.83,2.16,3.63,4.72,3.37,8.5,7.78,11,19,16.49,28.52q0,3.65,0,7.29l-10.48,9.9c-6.57,4.23-9.45-3.56-14.44-4.44l-.06-.06c-.06-2.45-1.38-3.78-3.75-3.59-1.93.15-2.83,1.54-2.73,3.5l-2.48,4.15c-2.59.72-3.79,2.26-3,5l-1.63,5.13c-2.7.7-3.66,2-1.59,4.43l-.79,3.74c-4.17,3.43-3.64,9.3-6.86,13.23-14.19.15-28.39.45-42.58.34-3.4,0-8.55,2.32-9.92-2-1.17-3.66,3.22-6.09,6.36-8.08,5.17,1.76,9.56.39,13.34-3.36l3.37-.36c2.86.67,5.71,1.33,3.57-3.34l-.31-6.36c2.09-2,1-3.15-1-4.1l-.35-3.17c1.51-4.26,2-8.33-2.18-11.51-3.91-12.09-12.58-21.19-20.82-30-29.41-31.52-60.1-61.85-89.15-93.69-9.59-10.51-20.83-18.44-31.49-27.33-8-6.63-13.47-14.1-14.37-24.89-2.62-31.37-11.19-61.87-12.67-93.52-1.74-37.25,5.62-72.82,15.85-108.09,1.91-6.59,1.26-11.52-3.47-16.76-18-19.89-28.44-45-45.61-65.62-5.93-7.1-7.58-4.41-11.24,1.18-8,12.26-13.83,26.14-24.8,36.32-12.51,11.61-25.32,22.92-38.12,34.21-17.19,15.15-36,28.44-52.35,44.54-1.71,1.68-4,3.06-5,5.08-9.74,19-28,22.45-46.33,26.06-11.14,2.19-13-6.15-16-13.36-2.84-7-3.69-13.63,5.21-16.82,6.89-2.47,7.4-5.51,4-12.13-4.68-9.14-10.25-17.5-15.66-26.13-9.08-14.49-11.51-31.25-5.72-48.19,2.12-6.2,6.13-7.38,12.07-4.52,9.07,4.36,11.78,13.21,14.75,21.33,4.59,12.55,15.64,16.24,25.89,21.34.87.43,2.44.86,2.93.43,8.8-7.82,23-7.89,27.76-22,5.72-17.09,18.66-30.12,29.44-44.18,19.12-24.93,38.41-49.68,56.17-75.66,12.49-18.27,24.58-20.54,45.21-11.21,16.27,7.36,30.78,17.7,45.46,27.73,1.88,1.28,3.52,4.24,6.06,3,3.37-1.7,1-4.88.62-7.28-2.07-15.24-3.38-30.7-5.93-45.69-3-17.85,5.43-29.54,13.36-42.95,5.53-9.35,6.64-21.59,2.09-30.67-10.19-20.36-11.83-41.65-9.55-63,3.14-29.54-3-57.76-7.79-86.35-4.86-29-.69-58.06.7-87.05.33-6.89,6.07-13,4.33-20.71a3.17,3.17,0,0,1,2.75-3.72,5.23,5.23,0,0,1,5.78,3.42c1.31,4.45.68,10.09,7.76,9.62a25.86,25.86,0,0,0,17.29-7.75c1-1,1.58-2.25,2.53-3.23,2.95-3,4.89-9.85,9.44-7.75,5.28,2.44-4.35,5.91-1.57,9.94l.39.22c-2.76-1.36-2.68.84-3.07,2.44-1.3,1.45-.55,2.86.86,2.91,3.19.12,5.92-1,6.63-4.68l6.26-6.37,14.63,4.49-8.46,5.85c-2.81-.34-4.2,1-4.47,3.73l-5.06,3.39c-7.05-1-13.31.24-17.69,6.51l-3.6,2.8c-2.8-.18-4.21,1.19-4.36,3.94l-9,9.92c-6.5,7-4.53,14.1-.31,21.25l.8,3.79c-2.37,4.8-.1,8.6,2.62,12.31l.55,3.25c-1.22,3-1.48,5.75,2.12,7.38l.94,3.75c-2.07,3.88-.19,6.44,2.88,8.61l1,3.76c-1,6.05,1.61,10.68,5.89,14.61l4.25,12.13c-1.37,10.91-2.09,21.82.1,32.72l0,8.36c-2.78,11.26-1,22.13,2.78,32.84l4.06,10c-.57,2.57.63,4,3,4.71,2.9,4.32,6,8.55,7.4,13.64-.84,2.48.25,4,2.48,4.92l1.67,5.31a5.71,5.71,0,0,0,2.24,6.68l.52,3.11c-1.34,1.69-1.59,3.34.16,4.93l-.79,9.88c-.66,1.84-.37,3.48,1.67,4,2.28.55,3.89-.44,4.31-2.91l2.17-4.48c2.59-.42,4.12-1.41,2.26-4.21l.87-3.72c5.34-7.43,2.46-13.5-3.18-19.1l-7.17-9.35c.65-2.62,0-4.53-2.91-5.11-3.41-7.67-2.52-14.1,5.36-18.51,3.11.24,4.34-1.33,4.1-4.29l2-1.93c4-.64,9-.16,7.38-6.88l.62-3.57c3.94-.53,8,1.16,11.86-.62l5.12.73c7.49,2.5,7.93,1.9,6-8.17l2.09-1.89c.32-8.53,17.77-8.21,10.67-20.81-1.16-2.07,1.42-3.38,3.59-3.77s5.15-.13,6.74-1.42c6.68-5.39,16.77-3.55,22.48-10.83.26-.33,1.3,0,2-.05l1.7,2.84c5.16,5.46,14,4.85,18.64,10.54,6.64,8.13,16.29,7,24.76,9.62l3.79.61c5.82,7.23,17.45,10.42,15.91,22.85,0,.23,1.7.68,2.61,1l.14.11c4.56,8.57-8.78,12.93-5,21.31-9.91.62-5.06,7.71-5.48,12.49l-.36.4c-10,1.7-15.35,14.79-11.2,27.19l.14,4c-1.85.33-2.93,1.34-2.9,3.32-3.44,3.62-6.25,8-11.45,9.51-5.57.61-10.7,2.31-15,6.13l-5.16.62c-6.75-.65-13.73-3.27-19.75,2.31l-10.16.68a2,2,0,0,0-2.83,1.53c-.39,1.78.43,3,2.44,3l14.7,10.61c.42,2.83,2.29,3.49,4.79,3.2a2,2,0,0,1,1.32,1.07c4.48,4.11,9.81,5.2,15.66,4.37l3.08.58c5.63,4.24,12.46,4.86,19,6.27a81,81,0,0,1,17.86,11c.37,2.74,2,3.77,4.65,3.46l9.62,7.14C1807.3,596.65,1823.18,598.07,1839.13,599.22Z"/><path class="cls-4" d="M6297.75,401.9c1.56,3.61-5.65,5.45-1.94,8.93,3,2.85,6.27-.4,9.48-1,6.28-1.08,12.73-1.19,19.21-1.71-.14.47,6.19,18.81,7.54,20-10.23-1.29-6,8.22-10.34,11.57-.93.72.38,2.35,2,2.68,2.41.49,7.51-1.74,5.1,4.1-2.49,6-6.33,12.36-12.92,12.93-2.66.23-7.17-3.86-8.23,1-.93,4.21,4.54,5.57,9.06,7-9.35,0-15.6,6.4-15,14.62.25,3.31,2.23,3.34,5.09,2.82,13.91-2.56,27.77-.7,41.75.07,28.61,1.56,57.32,3.87,85.94-.6,14.67-2.29,29.25-2.14,43.51,2.69,2.57.87,5.38,1.29,5.85,4.81-2.52,3.3-6.61.68-9.87,2.87,2.21,4,7.08,3,10.12,5.25,1.85,1.38,5,1.72,4.17,4.81s-3.76,3-6,2c-4.68-2.15-8.56-4.12-10.36,3.41-.49,2.07-4.37,1.16-6.67.73-19.62-3.71-39.33,3.35-59.25-1.17-7.53-1.71-16.48,3.34-24.87,4.85-25.32,4.58-50.78,6.85-76.59,5.66-13.16-.61-25.79,3.65-37.6,9-12.75,5.81-25.72,8.92-39.67,8.43a16.89,16.89,0,0,0-7,.92c-3,1.27-13.09,29.38-12.41,32.78,1.47,7.34,4.65,14.52,3.28,22.17-1.17,6.54,2.2,8.38,7.7,9.38,8.73,1.59,17.3,4.34,26.08,5.35,12.87,1.48,21.7,10.53,32.58,15.54,20.41,9.41,42.79,8.2,64.46,6.22s43.76-1.75,65.28-6.44c9.34-2,19.72-11.53,20.41-21,.39-5.37,2.45-8.89,6.19-12.24,19.15-17.17,39.11-33.22,61.78-45.59,4.81-2.63,6.57-5.74,7.2-11.83,1.33-12.84,4.44-25.87,19.29-30.84,1-.32,2.16-1.49,2.71-1.21,12.43,6.29,17.91-4.63,24-10.83,15.31-15.53,33.43-15.07,52.46-11.61,5.33,1,11.1,2.16,12.32,9s-2.36,11.82-7.46,15.8c-7,5.47-14.41,10.48-21.15,16.27-14,12-26.22,25.6-38.74,39.1-18.07,19.47-36.08,39.2-55,57.92-10.27,10.13-18.85,21.41-24.69,34.9-7.66,17.71-22.74,26.07-40.73,31.11-34.8,9.75-67.79,25-102.21,35.58-22.65,7-40.3,14.75-40.06,41.83-17.66,40.75-28.11,84.1-45.12,125.07-12.26,29.52-12.79,60.31-12.52,91.59.17,19.42-4.65,38.7-11.65,56.8-10.56,27.31-22.62,54-34.27,80.93-1.8,4.14-2.22,7.51.15,11.55,9.17,15.63,1,31.26-1,46.7-.69,5.33-7.62,8.72-13.21,6.65-6.93-2.57-7.5.33-9.2,5.86-5.19,17-20.71,22.92-34.81,29.37-7.54,3.45-17.61,9.32-24.76,1.38s.3-16.87,4.15-24.44c17.3-34.1,25.91-70.94,35.33-107.62,6.69-26.06,14.87-51.75,22.25-77.64,4.39-15.39,9-30.74,12.51-46.34a46.19,46.19,0,0,0-.36-19.34c-9.24-42.25.68-83.54,6-125,2.54-19.87,6.26-39.61,10.61-59.23,2.24-10.12-3.6-18.65-10.94-24.93-13-11.13-25.58-22.68-37.68-34.79-22.88-22.91-32-52.84-42.25-82.16-7.77-22.27-14.51-44.9-22.45-67.1-2.69-7.52,2.78-13.77,1-21-.89-3.64,2-9.22-4.15-9.33-4.2-.08-10.83-3.15-12.51,4.59-.58,2.68-2.33,4.1-4,2.23-8-8.68-9.43,1.58-11.44,4.63-3.07,4.64-5.46,4.17-7.42.51-2.94-5.48-8.85-7.37-12.51-11.95-4.14-5.17-9.95-7-16.63-5.2-12.65,3.33-20.69-4.43-28.59-12.19-2.52-2.48-1.85-5.44-.37-8.51,5.24-11,15.35-15.47,27.55-15.36,26.77.25,53.76,3.41,79.9-6.75,14.58-5.67,29.66-3.4,43.81,3,4.5,2,7.06,2.93,9.16-2.93a58.3,58.3,0,0,1,8-14.22c7.49-10.27,10.32-21,6.85-33.69-2.23-8.19.21-13,10.78-15.29,8.5-1.82,18.71-1.25,26.06-8.55,3-3,6.27.6,9,2.53,6.29,4.51,12.17,10.15,21,5.6,1.3-.67,3.37,0,5.06.23,4.32.61,9,5.26,12.52,2.53,5-3.85,10.4-9.21,12-14.93,3.24-11.74,12.42-10.32,20.62-13.27,8-2.89,10.72,1.62,14.63,5.85,1.43,1.55,2.85,3.31.72,5.22-10,9,.23,8,4.79,9.92C6292.64,401.95,6295.61,399.46,6297.75,401.9Z"/><path class="cls-3" d="M4537,850.3c-10.88-32.37-21.67-64.76-32.62-97.1-5-14.88-9.84-29.88-15.87-44.37-2.35-5.66,2-10.42-1.49-16.55-11.48-20-23.35-40.12-27.32-63.52-1.84-10.83-5.91-21-9.9-31.23-5.31-13.55-6.3-28.24-1.69-41.23,5-14.17,12.53-27.43,14.82-42.66.6-4,3.17-7.43,5.23-11,3.65-6.34,12-10,13.38-16.24,3.32-15.52,11.42-29.73,9.08-47-3-22-5.13-44.06-11.17-65.52-1.27-4.5-4.47-9.88-3.09-13.42,3.35-8.64,8.26-15.38,2.9-26.13-2.42-4.85-2.9-8.6-8.58-9.37-4.07-.55-7.62-2.24-3.8-6.33,13.81-14.8,8.37-35.4,16.24-51.94,1.31-2.75,0-7-3.21-4.74-4.92,3.47-12.2,4.05-13.22,13.45-1.26,11.68-8.86,21.38-16,30.56l-3-1.23c.71-3.58,1.34-7.19,2.15-10.75.75-3.28.72-6.5-2.85-7.78-4.08-1.47-5.85,2-6.33,4.88-1.89,11.25-8.78,20.58-11.81,31.15-3.72,13-14.51,21.45-18.88,34.11-1.79,5.18-5.47,8.94-2.75,14.86s8.11,4.48,12.38,4.41c5.6-.1,6.79,1.31,8,7.08,2,9.23.88,20.1,5.1,27.41,8.25,14.3.73,24.94-4.52,35.94a20.23,20.23,0,0,1-15.41,10.73c-8.79,1.1-17.63,2-26.34,3.54-5.17.92-11.23,1-13.5,7.49-.6,1.71-1.76,3-3.76,2.81s-2.27-2.06-2.87-3.66c-2.9-7.65-9.4-15-.06-23,2.2-1.9,3.2-6.65.59-9.56-4.08-4.55-3.62-10.11-4.63-15.37-1.22-6.38-1.71-13.1-5.28-18.66-8-12.44-16.07-25.53-33.2-25.59-18-.06-33.47,14.19-37.42,32.11-2.18,9.87.25,19.85-1.52,29.46-1.59,8.6-.55,15,6.46,20.73,5,4,5.92,10.71,7.42,16.56,1.34,5.24-4.55,6.18-7.38,8.68a12.07,12.07,0,0,0-4.45,10c1.42,15.14-8.25,15.28-18.83,14.9-3.75-.13-7.52.55-11.28.53-4.3,0-10,1.52-11.81-3.6-1.62-4.6-4.41-10.61,2.63-14.31,2.27-1.19,2.4-4.16.09-4.79-9.64-2.61-14.29-11.89-23.12-16.06-14.4-6.8-23.3-4.95-29.7,9.47-3.16,7.12-4.94,15.1-9.2,21.45-13.21,19.65-14.86,41.63-13.12,63.87,1.36,17.32,20.95,36.75,36,34.93,14.1-1.71,25.45,3.31,37.19,8.46,19,8.32,15.82,3.53,15.86,23.22,0,6.85.44,13.69.66,20.53.62,19.84.45,39.68-.91,59.48-.75,11-10.48,22.23.87,33,.37.35.22,1.32.21,2-.06,9.51.51,18.91-3.47,28.15a109.67,109.67,0,0,0-8.47,32.66c-3,30.37-1.07,60.85-1.85,91.27-.13,5.11.64,10.24.93,15.37.15,2.64,1.21,5.71,3.92,4.71,9.42-3.49,18.24,1.92,27.27,1.15,9.37-.8,11.37,4.25,11,11.71-.4,8.23-1,16.47,1.72,24.42,2.25,6.57,2.56,13.09,2.27,20.05-.28,6.73-2.55,13.46-.55,20.33,2.57,8.81,7.08,16.31,8,26.55,1.57,18.44,5.54,37,9.09,55.46,5.21,27.06,16.24,52.6,18.4,80.65,1.86,24.3-8.21,41.67-32.32,47-6,1.31-12,2.65-17.85,4.48-4.09,1.28-7.7,4.08-7.3,8.82.49,5.83,5.53,4,8.9,3.89,21.54-.5,43.14-.8,64.6-.54,28.38.34,56.77-.18,85.14.7,6.37.2,9.48-1.48,9.12-8.57-1.22-24-.69-47.91.08-71.95,1.51-47.19,3.42-94.45.49-141.69-.29-4.71-.66-8.05-6.5-7.87-6.65.21-9.59-1.91-4.52-8.32,1.83-2.31,1.28-5.16,1.43-7.89.46-8.52-.44-17.56,2.15-25.42,5.86-17.83,5.19-36.24,7.53-54.38,1.3-10.13,4.14-20.05,6.29-30.07,3.93,7.07,10.4,10.55,12.82,17.07,8.73,23.56,7.66,21.18,26,5.83,14.24-11.94,26.61-27,46.92-29.67C4538.59,858.43,4538.32,854.31,4537,850.3ZM4255.28,523.24c-7,4-13.44,9.32-21.59,11.11-1.9.42-4.25,1.17-5.35-1.18-.85-1.8.66-3.35,2-4.31,5.58-4.07,7.17-12.92,15.46-13.31,3.07.54,5.77.88,8.41,1.5C4259.18,518.22,4258.5,521.42,4255.28,523.24Zm130.42,644.61c-3.72-9.42-4-17.73-4.32-25.92-1.6-43.44-3.69-87-18.45-128.28-4.75-13.31-6.31-24.84-1-37.72,1.13-2.74-.26-6.51-.49-9.75,1.57-.58,3.25-.53,3.79.79,4,9.64,9.91,19.08,11.17,29.1,3.19,25.35,8.58,50.28,12.55,75.47,3,19.3,1.9,39,4.86,58.14C4395.9,1143.28,4391.45,1154.31,4385.7,1167.84Z"/><path class="cls-2" d="M3031.15,388.84l-.42.34v0h0Z"/><path class="cls-2" d="M3345.43,1163.72s0,0,0,0h0Z"/><path class="cls-2" d="M3672,1155.06h0l0,0Z"/><path class="cls-2" d="M3717.78,994.75v0l0,0Z"/><path class="cls-2" d="M3887.92,754.47h0s0,0,0,0Z"/><path class="cls-2" d="M4167.7,762.91h0v0Z"/><path class="cls-2" d="M3368,618.86l0,0h0Z"/><path class="cls-2" d="M4083.59,470.7v0h.06Z"/><path class="cls-2" d="M3980.51,378.48h0v0Z"/><path class="cls-2" d="M4169.33,714.1l-.31-.31c-6.27-2.49-6.79-9.35-8.65-14-4.39-11-11.82-20.51-15.12-31.94l-1.71-3.38c-5.31-9.64-12.6-18.66-9.68-30.89l.24-8.55c-1.14-8.86-9.82-17.42-1.07-26.68l-.16-2c-2.43-1.29-5.45-2.3-2.84-6l-.49-4c-3.94-13.16-9.1-26.05-8.66-40.16a.91.91,0,0,0-.88-1.07c-7.1-2.29-7.3-9.64-7.21-14.26s-1.68-9.8.65-14.44l-.72-4c-4.8,0-8.25-2.14-8.31-7-.07-5.77-3.59-10.2-4.82-15.45l-2.19-2.32c-1.55-.55-3.11-1.6-4.65-1.58-11.92.11-13.33-5.88-9.15-15.28-3.92.31-5.91-1.74-6.56-5.42a1,1,0,0,0-1.23-.89c-5.91.85-11.73-3.12-17.88.23-2.84,1.55-5-.87-5.34-4.18-.5-4.54.45-8.64,5.6-9.17,6.72-.69,13.54-.55,20.32-.65,7.81-.12,15.62-.11,23.42-.16a.75.75,0,0,0,.65-1c1.36-11.69,2.52-23.39.1-35.09-.25-2.2-1.63-3.64-3.28-4.91a9.47,9.47,0,0,1-7.94-8l-3.59-2.62c-9.25,0-9.13-6-8.12-12.62-2.51.71-4.22,0-4.85-2.69l-2.65-1.87c-4,1.49-6.32-.18-7.69-3.86l-3.28-1.64c-4,.4-6.28-1.42-6.84-5.41l-2.46-2.34q-5.85-1-5.28-6.9c-1.31-2-2.42-4.29-5.22-4.67-4.32,1.87-6.65-.51-7.5-4.19-2.64-11.48-8.84-9.63-16.43-5-2.72,1.65-5,4.93-9,3.66-9.74,5.83-17.07,14.15-23.87,23,.11,2.85-1.23,4.27-4.1,4.16,0,3-1.57,4.13-4.37,4l-5.7,4.82c-.7,4-3.07,5.72-7.09,5.15l-7.25,5.31q-1.27,5.68-7,5a16.89,16.89,0,0,0-6.39,7.45c-3.23,9.73-3.55,19.71-3.13,29.86.3,7.26,3.5,10.46,10.74,10.45,12.59,0,25.19-.37,37.7,1.79,6,1,7.2,2.5,3.9,8.68-4.47,8.36-8.14,12-17.16,5.3-5.85-4.32-14.12.65-20.72-3l-4,.42c-4.91,4.08-9.86,5.7-14.88.16l-2.68-3c-5.58-5.52-9.29-11.81-8.18-20.06l-2.51-4.56c-2.3-1-3-2.65-2.4-5l-3.08-5.35c-6.71-3.08-7.58-10.27-9-15.78-2.08-8.24.37-17.3-2.55-25.81-.65-1.9,1.09-3.74,3.52-4a6.62,6.62,0,0,0,3.3-4.89l-1-4.71a1.12,1.12,0,0,0-1.36-.82c-2.73.65-4.39-.33-4.83-3.16l-5.47-5c-8.9-2.94-7.36-7.32-1.69-12.27,1-2.14,1.38-4.22-.67-6-3.58-4.51-8.18-9.36-13.64-8.59-6.3.89-7.36-1.74-9.24-6.3-19.16-46.55-38.72-92.94-57.83-139.52Q3777.08,94.63,3738.8,0l-3,2.85c3,10,6.47,19.88,10.27,29.69,31.17,80.39,63.74,160.22,96.84,239.83,9,21.67,16.6,44,27.9,64.66a.93.93,0,0,0,.15,1.41c1,3.55-.4,5.08-4,4.79a1.1,1.1,0,0,0-1.33.79c-8.54,10-10.78,20.46-2.85,32,1.17,1.71.11,4-2.29,4.8l-1.58,3.15c-2.36,10.13-2.12,20.11,1.63,29.91.72,1.89,1.45,3.88-.52,5.57l.72,8.12c6.88,9.42,12,19.43,10.61,31.63a1.24,1.24,0,0,0,1.06,1.31c2.86.43,4.06,1.57,1.79,4.2l.79,4c6.36,8,9.1,16.74,5.66,26.79l.59,4c3.17,1.71,4.18,4.78,5,8a1.11,1.11,0,0,0,1.31.86c2.6-.59,4.36.2,4.91,3l2.22,2.72c5.45,9,13.93,16.16,15.87,27.17l15,16c2.78.32,3.9,1.9,3.5,4.62l1.82,1.93c5.08-.35,6.51,2.77,6.63,7,.12,4.43-3.05,6.43-6.53,6.46-14.21.1-28.48,2.47-42.63-.79h-12.62c-2.5,2.61-8.6.31-8.57,6.62,0,2.28-2.51,3-4.63,3-12.8-.2-25.59-.45-38.38-.83-.67,0-1.31-1.37-2-2.1h-3.63c-4.62,5.85-10.47,1.28-14.78.46-15.61-3-30.71-8.21-45.33-14.61l-6.1-.42c-2.61,2-5.2,2.05-7.77-.06l-6.14.47c-15,4.9-29.52,11.39-45.35,13.47-3.72.08-7,.68-6.64,5.6,2.94,2.85,6.09,5.64,2.94,10.23l.72,4c5.49,6.68,6.28,14.5,5.57,22.7l.91,4c7.46,10.32,8.53,23.35,14.51,34.34,1.2,2.21-.79,4.58-3.29,5.58-12.92,5.13-24.28,15.75-39.91,11.47l-1.86,1.9c-.24,1-.35,2.71-.73,2.77-12.08,1.93-24.17,3.92-36.32,5.29-2.22.25-5.2-1.54-6.1-4.6a21.3,21.3,0,0,0-11.89,0c-.8,2.75-2.75,2.65-4.78,1.76a189.9,189.9,0,0,0-65.07-16.2l-4.11.55c-5,2.43-5.86,1.68-5.43-4.78-.86-3.13-3-5.16-5.68-6.76-5.26-2.83-5.45-5.75-.15-8.76l5.17-5.35c.44-7.55-9.45-12.67-4.86-21.5.89-1.71-2.82-3.48-5-4.43-9.67-4.29-13.56-11.88-12.9-22.16l-11-11.88c-2.89-.16-3.9-1.77-3.47-4.49l-2.76-3.71c-22.13-9.59-44-7.14-65.63,1.63l-3.54,2.77c-.43,3.57-2.55,5.39-6,5.8l-4.81,5.38c-1.3,6.53-2,13.26-4.08,19.53-1.85,5.59-5.22,5.68-7.94.09a1,1,0,0,0-1.22-.86c-.65.15-1.44.62-1.92.4-10.77-4.91-19.43-.43-27.66,6.07,4.58,6.41,5.42,13.34,2.87,20.74-.39,1.13-2.23,3.08-.7,3.32,10.65,1.67,1.52,11.17,6.19,15l3,4.08c10.5,1,10.5,1,6.94,8.25l.22,2.35a24.09,24.09,0,0,1,13.28-1.36l2.12.79,4.18,1.06c1.89-1,2.14-4.15,5-3.9,2.88-1,3.76.89,4.38,3.1l1.59,1.3a73.5,73.5,0,0,1,7.71,1.51c6.77,2.06,6.85,3.64.7,9.28l-9.79,6.72a10,10,0,0,1-6.73,5.53L3391,711.58c-3.11,4.71-7,8.38-12.68,9.78l-7.45,6.95-6.63,6a1.65,1.65,0,0,1-.68,1.61c-.78,3.55-2.25,6.69-5.43,8.75l-2,3.91c-1.56,3-3.16,3.74-4.84.08l-7.92-12.37c-2.4-.58-3.41-2.14-3.18-4.56a8.28,8.28,0,0,1-3.24-5.36c-2.14-.94-3.35-2.44-2.89-4.92l-5.29-9.52c-4-4.47-7.45-9.2-8.71-15.21l-1.67-3.14c-2.4-.87-2.72-2.88-2.79-5l-5.79-9c-1.75-1.33-3-2.92-2.81-5.29a1.49,1.49,0,0,1-.73-1.53c-2-.92-3.4-2.25-3-4.72l-3.32-5.39c-2-.95-3.32-2.42-3.25-4.8l-3.4-5a6.55,6.55,0,0,1-2.6-5.36l-2.58-4.33c-4.34-3.75-6.16-8.9-7.78-14.15l-3.07-5.34c-2.29-.89-2.85-2.79-2.9-5L3272.7,616c-1.49-2.33-4.61-3.84-3.7-7.37q0-2,0-3.95c-.6-3.72,1.82-5,4.75-5.78l2.3-2.39.64-4.5-1.35-3.38a4.52,4.52,0,0,1-3.32-4.74l-9.21-13.49c-2.63-1.69-4.5-3.9-4.85-7.14l-2.89-3.83c-2.08-.71-3.5-2-3.59-4.31l-6.82-7.8a9.18,9.18,0,0,1-6-6.42l-10.49-12c-8-3,1.07-7.48-1-11-3.54-1.86-4.46-5.52-6-8.77-2.24-2.07-4.21-4.29-4.22-7.6l-6-8.84c-3-11.85-13.39-13.52-22.77-16.58a6.52,6.52,0,0,1-3.31-4.54c-3.37-4.24-7.91-2-12-2.17-6.78-2.66-9.44-6.47-3.53-12.67a4,4,0,0,1,3.76-4l7.27-10.3c1.81-9.58.32-19.54,3.28-29l.17-12.5-6.33-20.58-2.92-5.35a12.28,12.28,0,0,1-5.37-7l-2.32-2.18c-2.2-.37-3.85-1.41-4.49-3.68l-9.66-5.94c-3.35.54-6-1-8.47-2.95l-16.62-.08c-3.25,1.88-6.64,3.31-10.5,3.19l-3.28,1.81c-.77,2.38-2.82,2.66-4.86,2.95-6,6-12.37,11.71-16.72,19.17-1.33,4.59-1.52,9.6-5,13.41L3087,399l-.09,10.39.52,3c.85,1.4,1.75,2.78,2.55,4.22,1.15,2.08,2.62,4.83.31,6.31-2.57,1.64-5-.25-6.42-2.81l-5.28-3.15c-2.31,0-4-1-4.66-3.31l-9.75-8.9a9.9,9.9,0,0,1-6.82-5.4,1.4,1.4,0,0,1-1.33-1.05c-3.21-.43-5.29-2.52-7.21-4.86l-3.29-.54c-6.64-1.78-10.74-1.84-6,6.88,1.4,2.6,1.65,8.15-2.05,8.84-4.24.79-4.1-4.29-4.69-7.49-.73-4-1.36-8-2-12-4.33-2.09-3.94-5.77-3-9.46,1.08-4.24-1.22-7.83-1.93-11.73a1.45,1.45,0,0,1-1.08-1.39c-1.19-10.36-3.86-20.81-3.25-31.07a511.11,511.11,0,0,0,.45-60.05,1.85,1.85,0,0,1-1.21-1.5c-2.9-1.43-6-2.78-2.34-6.57a15.47,15.47,0,0,1,4-7.79c2.44-7.6,3.31-15.7,7.19-22.84l.21-4.31-4-2.9c-1.46-.48-2.38-1.33-2-3-1.11-2.81.92-3.82,2.81-4.9a1.12,1.12,0,0,1,.81-1.26c1-3.47,2.16-6.79,5.59-8.67l5.15-7.66c.88-9.44.32-19.11,4.47-28l.39-2.95c-1-4.05.35-7.39,3.19-10.25l1-3.91c.88-7.3,2.07-14.58,2.53-21.91.26-4.15.76-9.61-6.6-7.87l-1.13,2.45c-1.2,7.54-1,15.45-5.74,22.07l-1,4.94c1,3.49-.64,6-3.88,6.22-2.4.13-2.52-2.37-1.47-4.39l-.71-4.25-20.94,0-1.1,2.14c-1.61,7.09-8.35.34-11.17,4.15l-1.55,6.37c1.75,3.1.29,5.92-.8,8.76-4.34,11.36-6.66,22.77-3.31,35,.83,3,4.71,8.74-2.75,10.35l-10.14.43c-3.07,2.27-3.4,4.67-2.51,8.69,1.78,8,4.83,16.75-3.05,23.74a1.15,1.15,0,0,1-.9,1.26c-.08,2.44-1.45,3.65-3.76,4l-2.19,2.2c-6.23,8-5.41,17.6-6.57,26.84-.86,6.88-.48,14.1-4.09,20.46l-1,6c-2.05,10.79,4,20.93,2.5,31.7-.44,3.21,1.5,6.78-1.5,9.6l-.89,3.92c.88,5.25-.56,10-2.95,14.63l-.63,6-.3,19,.86,5.95c6.8,17.3,6.5,36.34,13.17,53.67l2,5.3c2.35,1,2.53,2.84,2.13,5l2.76,4.63c1.81,2.29,4.1,4.34,3.75,7.69l1.8,3c2.34,1,2.74,2.92,2.62,5.14l1.89,2.74a6.81,6.81,0,0,1,2.75,5.36l1.25,2.94c1.71,1.34,3.26,2.77,3,5.24l1.07,3c5.11,8,7.44,17.17,11,25.83l1.72,2.72c2.06,2.17,4.27,4.26,4.27,7.59a1.63,1.63,0,0,1,1,1.51c8.52,7.32,1.19,13.91-.95,20.74l-.85,6a27.51,27.51,0,0,1-3.06,18.71l-.75,3.9a80.94,80.94,0,0,1-5.6,28.93l-.73,3.94c-1.23,18.09,1.85,35.64,6.47,53,1.29,4.86-1.49,8.31-4.69,11.46l-1.63,3.34c-3,10.22-6.44,20.33-7.66,31l-.11,10.18a99.67,99.67,0,0,1-2,35l-.84,10.12c1.28,7.91-.11,15.47-3,22.82l-.66,3.92c-.22,9.92-4.61,18.23-10,26.15l-3.76,6.82c-1,3.4-1.86,6.85-5.33,8.72a1.74,1.74,0,0,1-.74,1.58,13.4,13.4,0,0,1-5.16,9.08l-1.67,3.13L2944,890.09l-.8,3.94c.79,5.25-1.26,9.9-3.1,14.6l-.61,3.92c-1,12.52-2.1,25-5.81,37.12l-.74,6c1,8.54-1.09,16.7-3,24.88l-.57,6c.16,12-.9,23.88-5.89,35.05l-.72,3.95a17.65,17.65,0,0,1,.5,1.94c.74,5.16-5.44,11.36-.49,14.74,2.54,1.74,9.07-2.75,13.92-3.9,5.49-1.31,10.68-4.27,16.63-3.31l4-.47a61.48,61.48,0,0,1,28.62,0l6,.42c5.08-.23,10.15-.69,15.23-.63,12.19.15,13.15,1.79,8.79,14l-.64,6c.88,9.87-1,19.44-3.11,29l-.76,10.07q0,16.63.06,33.26c1,6.67-5,10.46-6.65,16,.81,2.91-.9,4.71-2.84,6.41l-1.08,3.86c-2,12.33.18,24.37,2.13,36.49.57,3.54.7,7.5-1.14,11l0,12.49c1.53,3,1.65,6.66,4.44,9l242.82.06,2.64-2.88-.36-4.3c-1.44-.9-2.77-1.89-2.85-3.81l-5.49-3.57c-22.83-1.14-43.82-7.81-62.71-20.82a1.07,1.07,0,0,1-1.15-.94c-3.48-1-6.68-2.39-9-5.32l-2-1.64c-4-6.83-5.36-12.8,4.9-14.92,4.26-.88,6-3.68,7-7.71,4.54-18.17,12.25-35.14,20-52.1l1-3.88c6.48-21.8,15.18-42.76,24-63.65,1.71-4,3.19-6.65-.42-10.79-5.11-5.87-2.77-9.74,5.88-11.28l6.06-.21c4.83-4,.68-10.73,4.63-15l-.09-4.31c-3.24-6.63-1.23-19.22,3.8-23.73a1.49,1.49,0,0,1,1.48-1c11.09-8.27,6.42-22.12,11.51-32.52l.65-6V887.87l-.62-10.16c-2.45-16.41-6.64-32.62-5.8-49.42l-.68-10.1c-2.12-10.15-4.5-20.28-3.13-30.79l-.37-3a39,39,0,0,1-2.27-19.8l-.52-3.95c-1.72-10.28-4.11-20.49-3.24-31l-.76-8c-.54-2.53-1.07-5.07-1.63-7.6-.46-2.12-2.2-4.91,1-5.81s4.42,1.9,5,4.64l1.56,2.11a5.9,5.9,0,0,1,3.33,4.84c6.23,4.54,9.48,11.28,13.15,17.72,2.22.93,2.69,2.89,3,5l5,7.75a4.93,4.93,0,0,1,3.35,4.55l3.32,5.08c2.43,2.69,4.51,5.55,5,9.29a1.21,1.21,0,0,1,.94,1.28c2.16.89,3,2.69,3.33,4.84a1.09,1.09,0,0,1,.87,1.2c7.69,8.74,17.86,15.17,23.87,25.48l1,3.1c.49.42,1.48,1,1.41,1.23-3.82,9.63-5,20.43-12.25,28.57l0,0a5.59,5.59,0,0,1-3.87,4.59l-3.36,5.35-5.89,18.63-.91,3.91c-3,10.19-.83,19.8,3.25,29.2a1.36,1.36,0,0,1,.65,1.5,5,5,0,0,1,3.3,4.71l6.52,6.59,6.26,2,8.37-.19c2.57-1.72,5.06-3.66,8.44-3.29l3.18-1.62c6.1-5.5,13.9-6.82,21.48-8.67l5.7-3.35c1.41-3.14,4-5.42,7.18-4,5,2.24,9.26-.57,13.83-1l2.83-1.78c2-2.22,4.16-4.28,7.46-4.34l7.52-5.42c1.51-3.14,3.93-6.52,7.35-5.18,4.55,1.79,1.11,5.72.48,8.64-.69,3.19-1.17,6.59-3.69,9.08l-.9,5.94c-1.88,10.09-6.19,19.38-9.58,29l-.66,3.92c-2,12.13.7,24.3-.26,36.44-.29,3.72-.28,7.57-4.26,9.66l-7,11.58c-4.55,4.91-3.77,12.81-9.55,17l-3.17,2.72c-3.8,3.12-9.79,1.4-13,5.86.88,2.63,1.23,5.22-.42,7.71-1.41,3.39,2.88,6.34.75,9.78l-.5,3.21c-4.84,29.69-6.13,59.66-6.83,89.67-.06,2.35.24,4.85-2.34,6.25a110.53,110.53,0,0,0-.08,24.13c3.7,2.62,4.85,6.35,4.61,10.67,2.91-.48,5.56-.24,6.27,3.27.53,2.65-.26,4.72-3.44,5l-1.48,2.81c1.17,2.49.78,4.42-2,5.5l-.82,8c3.17,4.61.32,6.71-3.51,8.39L3329,1208.55c-3.4,8.35-1,11.33,8.31,10.9,14.93-.7,29.92-.52,44.86,0,7.49.24,11.28-1.29,10.84-9.87-.34-6.46-.43-12.83-2-19.14-2.34-9.17.11-17.46,5.11-25.18l.52-.39c1.95-3.71,3.48-3.6,4.58.5l1.38,6.19c6.79,15.67,11.91,31.91,16.43,48.35a3.68,3.68,0,0,0,4.58,1.62c7.49-4.51,15.74-2.17,23.52-1.91,6.41.22,8-1.22,7.88-7.49-.07-3.65-3.85-11,5.5-10.24l6.08-.75c3.86-4.85,9.75-3.09,14.25-3.08,12.9,0,24.34-7.17,37.19-6.54l4-.73c9.63-7.14,22-5.39,32.43-10a105.56,105.56,0,0,1,11.47-3.88c3.27-1,6.79-2.44,7.84,2.82a.92.92,0,0,0,1.05.92c7,2.9,14.22-2.25,21.23.53l6.14-.36c4.36-5.46,11-4.74,16.75-5.61,10.16-1.53,20-5.43,30.55-4.23l4-.75c7.11-8.06,3.17-17.93,4.43-26.95.37-2.65-1.84-6.93,2.75-7.25,3.82-.27,6,2.61,5.56,6.74l3.32,2.75c4.19-.78,5.38,2.34,6.21,5.26s-.71,4.5-3.81,4.35c-2.44,6.72,2.68,12.6,2.16,19.11l1.76,3.49c3.41,5.66,4.52,11.32.07,17l-.75,4c1.84,1.19,1.89,2.43.09,3.71l.56,6.12c3.57,11.71,12.7,11.28,22.41,10.89,12.88-.51,25.79-.19,38.69-.08,3.25,0,6.91-1.11,9.41,2.25l2.08-.13-1.69-11.4c-5.55-8.42-15.29-12.85-20.55-21.54-4.64-5.7-2.77-12.9-4.35-19.31-.72-2.92-.13-6.15-1.83-8.92-4-6.54-2.09-10.9,5-13.34a5.28,5.28,0,0,0,1.18-5.88c-2.43-1.3-3.06-3.84-3.23-6.07-1.54-20.56-2.54-41.14.1-61.7l-.48-8.14c-4.55-2.21-2.79-6.51-2.93-9.89-.8-20.15-1.31-40.31-1.92-60.46-13.52-5.11-15.31-8.65-8-20.39,3.75-6-2.21-10.41-.67-15.6,2.33-7.85-3.73-8.17-8.57-10.6s-12.48-.27-14-8.19a21,21,0,0,0-7.57-6.86c-2.51.36-4.37-.26-4.76-3.13l-2.73-1.66c-2.77,1.25-4.77.82-5.48-2.48a1.42,1.42,0,0,0-1.57-.87c-2.69.48-4.26-.57-4.58-3.34-2.16-2.19-4.38-4.28-7.5-5-13.3-2.1-24.11-6.92-25-22.71a1.23,1.23,0,0,0-.65-1.51c-3.07-.57-4-2.37-3-5.25-.5-2.56-2.37-4-4.35-5.4-3.85.36-7.42.14-9-4.27-2.86-2-5.55-4.25-7.09-7.54-7-6.53-10.27-15.35-12.51-24-6.19-23.85-17.12-46.81-14.87-72.39.28-3.14-1.42-7.08,3-8.89l.17-6.11c-2.58-3.11-.64-4.85,2-6.35,5-2.91,10.34-5.73,16.21-5.51,15.91.59,31.66-1.65,47.68-1,21.76.84,44.33.51,62.14-16a4.49,4.49,0,0,1,5.65-.59l2.66-1.66c.25-2.76,1.92-3.68,4.47-3.49l9.9-8.68c.13-2.71.87-4.52,4-2.69,5.33,3,6.53,9.45,11,13.16,2.92.25,3.9,1.91,3.38,4.66,4.31,4,2.92,13.7,12.48,12.38,11.11-8.76,23.75-3.67,35.74-3.55,3.1,0,7.64-.21,9.84,3.78l4,.66c2-2.17,4.47-1.43,6.67-.64,18.29,6.51,36.82,10.25,56.25,5.66,2.18-.52,4.82-.83,6.69,1.37l4-.65c2.4-3.54,5.79-6.9,9-2.21,2.15,3.1-.14,6.84-4.83,7.32,0,3.76-1.94,5.85-5.62,6.43l-2.94,5.28c-2,5.7.74,12.68-4.74,17.42-.87,2.85-.53,6.11-2.88,8.46-4.1,6.17-10.63,6.77-17.12,7.49l-.12,2.21c6.16,4.32,6.35,11.52,8.22,17.75,3.05,10.14,5.44,20.47,8.11,30.72a10,10,0,0,0,4.49,5.3c2.7-.3,4.32.78,4.59,3.58a1.06,1.06,0,0,0,1.33.69c11,2.83,21.54,2.18,31.65-3.27a7.75,7.75,0,0,1,6.89-.64l3-1.25c.44-3.16,3-4,5.26-3.39,12.06,3.18,23.2-1.06,34.53-3.83l1.4-1.5c1-2.24,2.08-4.62,5-4,2.35.47,2.7,2.73,3,4.82,2.92,17.78,5.88,35.43,6.81,53.6.76,15,1.72,30.26,4.55,45.18,1,5,.36,9.32-3.55,12.85-1.13,2.62-.45,5.15.37,7.67,7.1,4.91,7.95,11.43,4.72,18.88a99.92,99.92,0,0,0-7.92,32.61l.3,14.33c.88.92,2.53,1.84,2.53,2.76.05,16.19,2.13,32.41-.43,48.57l.6,8.21a51.3,51.3,0,0,1,3.18,35l.56,8.13c4.65,2.94,5,6.79,2.43,11.3-4.86,8.5-3.56,16.75.5,25.22,4.31,9,.26,18.07-1.2,26.9-2.17,13.11-1.11,15.43,12.19,14.77,11.21-.56,23,3.41,33.6-3.74,1.65-1.11,4,.1,5,2.31l13.43,2c11.92-.13,23.84-.31,35.75-.37,13.35-.07,13.35,0,10.31-12.7l-2.06-1.83c-2.85.3-4.34-.95-4.4-3.84l-.06-.07c-2.84-.1-4.09-1.6-3.84-4.4l-5.08-7.82c-9.54-12.24-6.79-25.86-4-39.28,1-4.66,1.76-8.93,1.2-13.85a90.89,90.89,0,0,1,8.28-49.94l.33-2.87c-1-4.85-2.85-9.86,2.3-13.68l.5-4c-3-7.53-1.14-14.32,3.19-20.73l.55-4c-2.93-5-1-10.06.7-14.71,4.5-12.25-2.15-23.72-2-35.64.07-4.51-.36-8.93,4.71-11.39,3.58-1.74,2.28-4.82,2.28-7.94,0-4.9-3.9-10.85,2.73-14.57l3.71-4.71c-.67-9.66,1.32-18.56,7.52-26.26l1.07-10.09c1.32-7.05,1-14.56,5.77-20.65l.49-4c-2.85-7.47-1.68-14.36,3-20.74l.74-4c-1.78-8,0-14.59,5.81-21,7.39-8.17,8.39-19.77,13.29-29.4,1.07-2.1,1-4.72,4.12-5a1.3,1.3,0,0,0,.57-1.53c1.77-7.21,2.11-13.87-.95-21.37-3.56-8.73,4.12-7.6,9.45-7.51l3.42-2.88c1.12-4.43,3.77-7.17,8.47-7.62,1.91-4.53,2.34-9.93,7.39-12.63a1.17,1.17,0,0,0,1-1.32C4177.13,736.71,4167,726.61,4169.33,714.1ZM3150.88,1019c-22.91,40-31.92,84.28-37.07,129.11-1.9,16.52-9.21,31.16-10.7,47.37-.27,2.91-1.41,5.17-5.21,4.79-12.68-1.29-34.18-21-36.1-33.23-.1-.67-.13-1.35-.2-2,1-8.7,6.92-15.49,9-23.89,6.4-26.08,6.81-52.88,10-79.32,2.22-18.46,7.24-36.17,11.3-54.15,2.77-12.29,10.88-22.38,13.84-34.81,2.07-8.69,10-9.39,15.75-1.92,10,13,19.33,26.51,29.08,39.71C3152.67,1013.49,3152.67,1015.84,3150.88,1019Zm881.62,135.74c-1.53,5.28-3.6,10.41-5.75,16.43-5.5-6.71-1.91-12.49-1.08-18.16.33-2.23,1.66-3.83,4.15-3.11A3.91,3.91,0,0,1,4032.5,1154.71Zm-1.41-49.06a5.72,5.72,0,0,1,.46,1.94c-.55,4.14,1.16,9-3.35,11.89a2.76,2.76,0,0,1-2.63-.6c-2.41-4.64-1.4-8.94,1.72-12.91a54.22,54.22,0,0,1,2.5-18.45c-1.29-1.52-.93-2.86.44-4.09l.45-3.82c-1.15-2.81-.1-5,1.58-7.48,2.24,2.5,3.26,4.78,2.37,7.61C4038,1089,4033,1097.12,4031.09,1105.65Z"/></g></g></svg>